<?xml version="1.0" encoding="UTF-8" standalone="no"?>
<!-- Created with Inkscape (http://www.inkscape.org/) -->

<svg
   xmlns:dc="http://purl.org/dc/elements/1.1/"
   xmlns:cc="http://creativecommons.org/ns#"
   xmlns:rdf="http://www.w3.org/1999/02/22-rdf-syntax-ns#"
   xmlns:svg="http://www.w3.org/2000/svg"
   xmlns="http://www.w3.org/2000/svg"
   xmlns:sodipodi="http://sodipodi.sourceforge.net/DTD/sodipodi-0.dtd"
   xmlns:inkscape="http://www.inkscape.org/namespaces/inkscape"
   width="2166.54"
   height="329.99997"
   id="svg4096"
   version="1.1"
   inkscape:version="0.48.2 r9819"
   sodipodi:docname="dibujo.svg">
  <title
     id="title5250">デスノート</title>
  <defs
     id="defs4098" />
  <sodipodi:namedview
     id="base"
     pagecolor="#ffffff"
     bordercolor="#666666"
     borderopacity="1.0"
     inkscape:pageopacity="0.0"
     inkscape:pageshadow="2"
     inkscape:zoom="0.35355339"
     inkscape:cx="1243.1531"
     inkscape:cy="459.09579"
     inkscape:document-units="px"
     inkscape:current-layer="flowRoot4064"
     showgrid="false"
     inkscape:window-width="1366"
     inkscape:window-height="706"
     inkscape:window-x="-8"
     inkscape:window-y="-8"
     inkscape:window-maximized="1"
     fit-margin-top="0"
     fit-margin-left="0"
     fit-margin-right="0"
     fit-margin-bottom="0" />
  <metadata
     id="metadata4101">
    <rdf:RDF>
      <cc:Work
         rdf:about="">
        <dc:format>image/svg+xml</dc:format>
        <dc:type
           rdf:resource="http://purl.org/dc/dcmitype/StillImage" />
        <dc:title>デスノート</dc:title>
        <dc:date>2013-07-04</dc:date>
        <dc:creator>
          <cc:Agent>
            <dc:title>Zerabat</dc:title>
          </cc:Agent>
        </dc:creator>
        <cc:license
           rdf:resource="http://creativecommons.org/licenses/publicdomain/" />
        <dc:language>None</dc:language>
        <dc:subject>
          <rdf:Bag>
            <rdf:li>Death Note;デスノート</rdf:li>
          </rdf:Bag>
        </dc:subject>
        <dc:coverage>Worldwide</dc:coverage>
        <dc:description>Death Note Logo</dc:description>
      </cc:Work>
      <cc:License
         rdf:about="http://creativecommons.org/licenses/publicdomain/">
        <cc:permits
           rdf:resource="http://creativecommons.org/ns#Reproduction" />
        <cc:permits
           rdf:resource="http://creativecommons.org/ns#Distribution" />
        <cc:permits
           rdf:resource="http://creativecommons.org/ns#DerivativeWorks" />
      </cc:License>
    </rdf:RDF>
  </metadata>
  <g
     id="layer1"
     inkscape:label="Layer 1"
     inkscape:groupmode="layer"
     transform="translate(34.710719,-669.09582)">
    <g
       transform="translate(474.4362,2.83333)"
       style="font-size:48px;font-style:normal;font-variant:normal;font-weight:normal;font-stretch:normal;text-align:start;line-height:125%;letter-spacing:0px;word-spacing:0px;writing-mode:lr-tb;text-anchor:start;fill:#000000;fill-opacity:1;stroke:none;font-family:Lassigue;-inkscape-font-specification:Lassigue"
       id="flowRoot4064">
      <g
         id="g5239"
         transform="matrix(2.2189607,0,0,2.2189607,-750.04284,-348.00246)">
        <path
           id="path4658"
           style="font-size:193.75px;font-family:'DEATH FONT ver1.0';-inkscape-font-specification:'DEATH FONT ver1.0'"
           d="m 109.13013,603.34863 -0.56763,-3.02734 1.13525,-1.89209 -0.56762,-0.75684 0.56762,-2.45971 -0.56762,-0.56763 -0.56763,0.56763 0,-0.56763 7.56836,-2.64893 1.89209,-8.70361 -0.75684,-3.78418 1.32447,0 0,-2.64893 -1.32447,0 0,-6.81152 1.32447,-1.89209 -1.32447,-1.32446 0.75684,0.56763 0.56763,-3.78418 q -0.56763,-0.56763 -0.94605,-1.70288 -0.37842,-1.32447 -0.37842,-2.64893 0,-1.32446 0,-2.45972 0,-1.32446 0,-2.64892 l 0.75684,-1.13526 -0.75684,-12.677 0.75684,-1.89209 -0.75684,-8.89282 2.64893,-0.56763 -2.64893,-0.56763 0,-1.89208 0.75684,-6.43311 -0.75684,-9.46045 1.89209,-1.89209 -1.89209,-1.13525 0,-12.67701 0.75684,-0.56762 q -0.75684,-2.64893 -0.75684,-5.48706 0,-2.83814 0,-5.67627 0,-2.83814 0,-5.86548 0,-3.21655 -1.89209,-5.10864 l 0.75684,-0.56763 -6.43311,-3.21655 q -0.56762,-0.56763 -0.94604,-1.51367 -0.18921,-0.94605 -0.18921,-1.89209 0,-0.94605 0,-1.89209 0,-0.94605 0,-2.27051 l 14.37988,-0.56763 2.64893,0.56763 28.38135,-0.56763 q 3.78418,0.56763 7.18994,1.32446 3.40576,0.56763 6.62231,1.89209 3.21655,1.13526 6.2439,3.40577 3.21655,2.08129 5.67627,4.73022 1.32446,1.89209 3.21655,3.78418 1.89209,1.89209 3.02734,4.1626 1.32447,2.0813 2.27051,4.3518 0.94605,2.0813 2.27051,3.97339 l -0.56763,0.75684 q 1.13526,1.13525 1.70288,2.45972 0.75684,1.32446 0.94605,2.83813 0.37842,1.51367 0.94604,3.21655 0.75684,1.51367 0.75684,2.83814 l -0.56763,1.13525 q 0.56763,1.89209 1.51367,4.1626 0.94605,2.27051 1.13526,4.73022 0.37842,2.45972 0.37842,4.73023 0,2.27051 0.75683,4.73022 l -0.75683,3.78418 0.75683,19.48853 q -0.75683,3.78418 -1.32446,7.94678 -0.56763,4.16259 -1.32446,7.94677 -0.56763,3.78418 -1.51368,7.18994 -0.94604,3.40577 -2.2705,7.18995 l -0.56763,-0.56763 -1.89209,4.3518 0.56763,1.32447 -0.56763,1.32446 -1.89209,0 -1.32446,5.67627 -1.89209,1.13525 0.75683,0.75684 q -1.32446,1.89209 -3.02734,3.40576 -1.51367,1.51367 -3.40576,3.21655 -1.89209,1.51368 -3.78418,2.83814 -1.89209,1.13525 -3.78418,2.45972 l -10.5957,3.21655 -1.32447,-0.75684 q -1.32446,0.75684 -2.2705,1.13526 -0.94605,0.18921 -2.27051,0.18921 -1.13526,0 -2.45972,0 -1.13525,0 -2.45972,0 l -0.56762,-1.89209 -1.32447,2.45971 -18.35327,0 0,-1.13525 -1.89209,0 0,1.13525 -8.70361,0 2.45972,0 1.32446,-2.45971 -3.78418,-1.89209 -2.64893,4.3518 1.32447,0 L 109.13013,603.34863 z m 36.51733,-0.56762 -3.02734,-1.89209 -1.89209,1.32446 4.3518,1.13525 L 145.64746,602.78101 z m 0.75684,-0.56763 -0.75684,-0.75684 -0.56763,0.75684 L 146.4043,602.21338 z m 3.78418,-0.75684 0,-2.45971 0.56762,-5.10865 -3.21655,0 0,3.21656 0.75684,4.3518 L 150.18848,601.45654 z m 22.70507,-5.67627 1.13526,-5.67627 -1.89209,0 -0.56763,5.67627 0.56763,0.75684 L 172.89355,595.78027 z m -41.05834,-4.91943 -0.56763,-0.75684 -0.75684,0.75684 0.75684,0.56763 L 131.83521,590.86084 z m 25.16479,0 3.21655,-2.64893 0.56763,1.32447 1.32446,-2.45972 1.32447,-0.75684 -0.75684,-1.89209 q 1.89209,-1.89209 2.83813,-4.3518 0.94605,-2.45972 1.51368,-4.91944 0.75683,-2.64892 1.32446,-5.10864 0.75683,-2.64892 1.32446,-5.10864 l 1.32446,0 0.56763,-2.45972 -1.32446,-0.75683 0,-4.91944 1.32446,-3.78418 -0.56763,-3.78418 0.56763,-15.89355 1.32446,0 0,-3.02735 -1.32446,-7.00073 0.56763,-0.56762 q -1.13526,-1.32447 -1.13526,-3.40577 0,-2.2705 0,-4.16259 0,-1.89209 -0.37841,-3.78418 -0.37842,-1.89209 -0.37842,-3.78418 l 1.32446,-2.64893 -1.89209,-3.78418 -0.56763,0.75684 -1.89208,-14.00147 -1.32447,0 q -0.56762,-1.89209 -1.32446,-3.78418 -0.56763,-1.89209 -1.51367,-3.78418 -0.94605,-1.89209 -2.27051,-3.40576 -1.13525,-1.51367 -2.45972,-3.40576 l -9.46045,-4.54102 -4.3518,2.64893 -1.89209,3.78418 -1.32447,0 0,2.45972 0.56763,3.21655 -0.56763,0.56763 0.56763,12.677 -1.13525,0 0,2.45971 q 1.13525,1.32447 1.13525,3.21656 0,1.89209 0,3.40576 0,1.51367 0,3.40576 0,1.89209 0,3.78418 l -1.13525,0 0,3.21655 q 1.13525,5.10865 1.13525,11.16333 0,5.86548 0,11.54175 0,5.67627 0,11.73096 0,5.86548 0,11.54175 l -1.13525,3.21655 q 1.89209,3.21655 1.51367,7.00073 -0.37842,3.78418 -0.37842,7.18994 0,3.40576 0,7.18994 0,3.78418 1.32446,7.00074 0.56763,0.56762 1.51368,0.94604 0.94604,0.37842 2.2705,0.75684 1.32447,0.18921 2.27051,0.18921 0.94605,0 2.0813,0 L 157,590.86084 z m -26.48926,0 0,-1.89209 0.75684,-4.54102 -1.89209,0 -0.75684,6.43311 L 130.51074,590.86084 z m -3.78418,-0.75684 0,-3.02734 -1.89209,-2.64893 -0.56762,5.67627 L 126.72656,590.104 z m 45.41016,-1.13525 0,-1.32446 -0.56763,-0.56763 -1.32446,1.13525 1.32446,1.32447 L 172.13672,588.96875 z m -38.40943,-4.54102 0.56763,-0.56762 -3.02734,-1.32447 -1.32446,1.32447 3.21655,1.32446 L 133.72729,584.42773 z m 37.8418,0 0,-0.56762 -0.56763,-0.56763 -0.75683,1.13525 0.75683,0.75684 L 171.56909,584.42773 z m -32.73315,-3.78418 -0.75684,-0.56762 -0.56763,0.56762 0.56763,0.75684 L 138.83594,580.64355 z m 0.56762,-3.02734 -0.56762,-0.75684 -0.75684,0.75684 0.75684,0.56763 L 139.40356,577.61621 z m -0.56762,-1.32446 0,-0.56763 -0.75684,-0.75683 -0.56763,1.89208 0.56763,0.75684 L 138.83594,576.29175 z m -11.35254,-1.89209 4.35181,-5.67627 -0.56763,-0.56763 -5.67627,3.02735 -0.75684,2.64892 1.89209,1.13526 L 127.4834,574.39966 z m 63.57422,-5.10864 1.32446,-4.91944 -1.32446,-2.64892 -2.45972,4.54101 0.56763,3.78418 1.32446,0 L 191.05762,569.29102 z m -59.79004,-1.89209 -0.75684,-0.56763 -0.56762,0.56763 0.56762,0.75683 L 131.26758,567.39893 z m 0.56763,-0.56763 0,-1.32446 -0.56763,-0.56763 -0.75684,1.89209 L 131.83521,566.8313 z m 4.3518,-0.56763 0,-1.32446 0.75684,-3.78418 -1.89209,-0.56763 -1.32447,2.45972 0.56763,3.21655 L 136.18701,566.26367 z m -1.13525,-10.21728 0,-2.45972 -0.75684,-6.2439 -2.45971,0 0,1.13526 0.56762,2.64892 -1.13525,3.78418 0.56763,0.56763 1.32446,-0.56763 0,1.13526 L 135.05176,556.04639 z m -7.00073,-4.91944 0,-3.21655 -1.32447,-1.32446 -0.56762,1.32446 -0.56763,0 -0.75684,-1.32446 -0.56762,1.89209 1.32446,1.32446 -0.75684,1.89209 1.32447,0 0.56762,-0.56763 0.75684,0.56763 L 128.05103,551.12695 z m 64.33105,-3.78418 0.56763,-0.75683 -0.56763,-1.89209 -2.45972,-0.56763 -1.32446,1.89209 3.21655,1.89209 L 192.38208,547.34277 z m -67.54761,-1.32446 0,-1.32446 -2.45971,0 -0.56763,4.54101 2.45972,0 L 124.83447,546.01831 z m 13.24463,-1.32446 0,-0.56763 0.75684,-1.89209 -1.89209,-3.78418 -1.32447,4.35181 1.89209,2.64892 L 138.0791,544.69385 z m -11.92016,-0.56763 -0.56763,-0.56763 -0.75684,0.56763 0.75684,0.56763 L 126.15894,544.12622 z m 5.10864,-1.89209 0,-2.45972 -0.75684,-0.75683 -1.13525,3.21655 L 131.26758,542.23413 z m 46.54541,-2.45972 1.32446,-4.54101 -3.21655,-1.13526 0,4.35181 1.32446,1.89209 L 177.81299,539.77441 z m 7.56836,-2.64892 0,-2.45972 -1.89209,0 0,1.89209 1.32446,1.32446 L 185.38135,537.12549 z m 3.21655,-3.02735 0,-7.00073 -1.32446,-1.32446 -0.56763,0.75684 0,-2.64893 -1.32446,0 -1.13526,5.10864 1.89209,1.32446 0.56763,3.02735 L 188.5979,534.09814 z m -48.62671,-1.89209 0,-1.89209 -1.13525,-1.32446 -0.75684,3.21655 L 139.97119,532.20605 z m -20.05615,-4.54101 1.13525,-3.02734 -3.02734,-1.32447 0,3.21656 1.13525,1.89208 L 119.91504,527.66504 z m 14.37988,-3.02734 0,-2.64893 2.64893,-0.56763 0,-1.32446 -5.10864,-2.45972 0,1.89209 1.32446,2.45972 -0.75684,1.89209 1.32446,1.32446 L 134.29492,524.6377 z m 59.41162,-3.78418 0,-1.32447 0.56763,-3.78418 -0.56763,-0.56762 q -0.75683,0.56762 -1.32446,1.32446 -0.56763,0.56763 -0.56763,1.13525 0,0.56763 0,1.51367 0,0.94605 0,1.70289 L 193.70654,520.85352 z m -59.41162,-4.54102 0,-2.45972 -1.89209,0 0,2.45972 L 134.29492,516.3125 z m 2.64893,-4.35181 0,-3.21655 -3.21656,0 -1.32446,2.64893 L 136.94385,511.96069 z m 56.76269,-1.89209 0,-3.21655 -1.89209,0 0,3.21655 L 193.70654,510.0686 z m -17.78564,-2.45971 0,-2.64893 -1.89209,0 0,2.64893 L 175.9209,507.60889 z m 8.32519,-4.54102 0,-1.89209 -1.32446,-1.13525 -0.56763,2.45971 1.13526,1.32447 L 184.24609,503.06787 z m 8.13599,-3.78418 0,-3.02734 -0.56763,-0.75684 -0.75683,3.78418 0.75683,0.75684 L 192.38208,499.28369 z m -10.02808,-1.13525 1.13526,-2.64893 -1.89209,-0.56763 -0.56763,3.21656 0.56763,0.56762 L 182.354,498.14844 Z"
           inkscape:connector-curvature="0" />
        <path
           inkscape:connector-curvature="0"
           id="path4660"
           style="font-size:193.75px;font-family:'DEATH FONT ver1.0';-inkscape-font-specification:'DEATH FONT ver1.0'"
           d="m 214.33032,602.78101 4.35181,-1.13526 0.56762,1.13526 0.75684,-0.56763 0.56763,0.56763 -0.56763,-0.56763 3.02734,-1.32446 0.56763,1.32446 1.89209,0.56763 4.54102,-1.13526 1.70288,1.13526 5.10864,-0.56763 0.56763,0.56763 1.32446,0 0.56763,-1.13526 0.56762,1.13526 0,-1.13526 2.64893,-0.75683 1.89209,1.89209 4.91943,-0.56763 1.32447,0.56763 1.13525,-0.56763 0.56763,0.56763 5.67627,-1.13526 0.75683,-1.89209 2.45972,1.13526 0,1.32446 3.02734,-1.32446 1.32447,1.32446 0.56762,-0.56763 1.89209,0 0,1.13526 0.56763,-1.89209 2.64892,0.75683 -0.75683,0.56763 0.75683,0.56763 0.56763,-0.56763 1.32446,0.56763 1.70289,-0.56763 0.75683,0.56763 1.89209,-1.89209 4.91943,1.89209 1.32447,-1.13526 -1.32447,-7.00073 q -0.56762,-1.13525 -2.08129,-1.13525 -1.70288,0 -2.64893,-0.56763 -0.94604,-0.75684 -2.0813,-1.32446 -1.32446,-0.75684 -1.89209,-1.89209 l -2.45972,5.67627 -0.75683,-0.75684 q 0,-0.56763 0,-1.51367 0,-0.94605 0,-1.89209 0,-0.94605 0.75683,-1.51367 0.56763,-0.75684 1.13526,-1.32447 l -0.56763,-0.56762 0.56763,-0.56763 -1.89209,-3.78418 0.75683,-1.32446 -0.75683,-1.13526 0,-2.64892 1.32446,0 -0.56763,-9.27124 -1.89209,-0.75684 -1.32446,-4.91943 0.56763,-0.56763 1.89209,0 0,3.02734 0.75683,-0.56762 0.56763,0.56762 -0.56763,-0.56762 0.56763,-0.56763 -1.32446,-0.75684 1.32446,-1.13525 -0.56763,-3.78418 0.56763,-3.78418 -1.89209,-3.78418 1.32446,-3.02734 -0.75683,-1.32447 1.32446,-7.56835 -1.89209,-4.35181 0.56763,-2.45972 0.75683,1.32446 0.56763,-1.32446 q 0,-1.32446 0,-2.0813 0,-0.94604 0,-2.27051 0,-1.32446 -0.56763,-2.2705 -0.75683,-0.94605 -1.32446,-1.51367 l 1.32446,-0.56763 0,-0.56763 -2.64892,-1.89209 1.32446,-2.64892 1.89209,-2.45972 -0.56763,-1.13525 0.56763,-1.89209 -0.56763,-0.75684 0.56763,-0.56763 0,-0.56762 -1.32446,0 1.32446,-5.10865 0,-0.56762 -0.56763,1.32446 -0.75683,-0.75684 0,-3.78418 1.32446,0 0,-9.27124 -1.32446,1.89209 -0.56763,-0.56762 0.56763,-5.67627 1.32446,0 -0.56763,-1.32447 0.56763,-0.56762 -1.32446,-0.56763 0.75683,-0.75684 -0.75683,-0.56762 0,-1.32447 1.32446,0 -1.32446,-0.56762 1.32446,-0.56763 -1.32446,-2.45972 0.75683,-0.75683 -1.32446,0 0,-3.02735 1.89209,0 1.89209,-5.67627 1.13526,0 0.75683,-1.89209 1.13526,1.32447 -0.56763,0.56762 1.32446,0 0.56763,-1.32446 0.56763,0.75684 3.21655,-1.32447 -1.32447,-1.89209 0.56763,-1.13525 -0.56763,-0.75684 0.56763,-0.56762 -1.70288,-3.78418 -0.75683,1.32446 -0.56763,-0.75684 -0.56763,0.75684 -0.75683,-0.75684 -0.56763,0.75684 -1.32446,0 0,-1.32446 -3.02735,1.32446 -4.3518,-1.32446 -5.10865,0.56762 -2.45971,-0.56762 -4.35181,0.56762 -0.56763,-0.56762 -18.16406,0.56762 -0.56763,-0.56762 -12.677,0 0.75684,0.56762 -0.75684,0.75684 -5.48706,-1.32446 -2.45972,0.56762 -0.75683,-0.56762 0.75683,0.56762 0,1.32447 -3.21655,1.32446 -3.78418,8.13599 1.89209,-1.32447 0.56763,0.56763 -3.02735,2.45972 -2.45971,12.677 -1.89209,0.56763 -1.32447,4.3518 0,3.78418 3.21656,1.89209 0.56762,0 0.56763,-1.32446 1.32446,1.32446 1.13526,0 1.32446,-2.45971 0,-0.75684 -2.45972,2.45972 -0.56762,-0.56763 q 0,-0.56763 0,-1.51367 0,-0.94605 0,-1.51367 0,-0.75684 0.56762,-0.94605 0.56763,-0.37842 1.13526,-0.94604 l 1.89209,0.56762 0,1.32447 8.89282,-12.4878 2.45972,-2.64892 0.56762,0.75683 0.56763,-1.89209 -0.56763,-0.75683 0.56763,-0.56763 1.32446,0.56763 5.10865,-4.91944 0.56762,0.56763 -0.56762,-0.56763 0,-1.32446 2.45971,1.89209 1.13526,-2.45972 5.10864,1.89209 0.56763,-0.56762 1.32446,0.56762 1.89209,-0.56762 4.91943,3.02734 -0.56762,3.21655 0.56762,1.13526 1.89209,1.32446 -0.56762,0.56763 0.56762,0.75683 -1.89209,1.13526 0,1.32446 1.32447,0 0,1.89209 1.13525,0.56763 -1.89209,2.45971 0.75684,0.56763 -1.32447,0.75684 0,1.89209 1.32447,0 0.56762,2.45971 0,1.32447 -1.89209,0 0.56763,4.3518 -0.56763,0.56763 0.56763,0.56763 -0.56763,2.45971 0,7.56836 2.45972,-1.89209 1.32446,1.32447 -1.89209,1.89209 q -0.56762,1.89209 -0.94604,3.40576 -0.37842,1.51367 -0.56763,3.21655 -0.37842,1.51367 -0.37842,3.40576 0,1.89209 -1.89209,2.45972 l -4.91943,-1.32446 -1.89209,0.75683 -1.89209,-1.89209 0.56763,-1.32446 -4.35181,-8.13599 -1.32446,0.56763 -0.56763,-0.56763 0.56763,-1.32446 -1.13526,-7.37915 -1.32446,0 0,-1.32446 -1.89209,0.56762 -1.89209,1.89209 0.75684,0.75684 -0.75684,1.89209 0.75684,10.5957 -0.75684,1.13526 1.32446,0 -0.56762,2.64892 0.56762,0.56763 0,1.32446 -1.32446,0 0.75684,15.51514 -0.75684,1.32446 0.75684,16.27197 2.45971,1.13526 2.45972,-0.56763 0.56763,-1.89209 0,-4.35181 -0.56763,2.45972 -1.89209,-2.45972 1.32446,-3.21655 5.67627,-11.73096 5.48706,-3.21655 5.10865,1.89209 1.13525,3.21655 -0.56763,0.56763 0.56763,6.81152 -0.56763,0.56763 q 0,1.32446 0,2.27051 0,0.94604 0,2.27051 0,1.13525 0.75684,2.0813 0.56763,0.94604 1.13525,1.51367 l -0.56762,0.75683 0,0.56763 1.13525,0.56763 -1.89209,0.75683 -0.56763,1.89209 0.56763,16.08277 -0.56763,0.75683 0.56763,1.13526 -1.13525,8.13598 0.56762,3.78418 -0.56762,3.78418 -1.89209,0.56763 -0.56763,-0.56763 -0.75684,0 0.75684,0.56763 -1.32446,1.89209 -1.89209,0 1.32446,-2.45972 -3.21655,1.32447 -1.32447,-0.75684 -3.02734,1.32446 -2.45972,0 0,-1.89209 -1.89209,0.56763 -0.56762,-1.13525 -3.21656,-1.32447 -3.78418,-4.91943 -0.56762,0.56763 -2.45972,-1.89209 1.13525,-0.56763 -1.13525,0 -2.64893,-5.67627 -1.70288,-1.32446 0,-1.89209 -0.75683,0.75683 -1.13526,0 0,-1.32446 -2.64892,-1.13525 0.75683,-1.89209 -1.32446,-3.21656 -0.56763,0.56763 -1.32446,0 0,-1.70288 1.32446,0 0.56763,-1.32446 -2.45972,-1.32447 0.56763,-0.56762 -1.89209,1.32446 -0.56763,-0.75684 -0.56762,1.32447 -0.75684,-0.56763 -1.13525,1.13525 -0.75684,-1.13525 -1.70288,1.13525 1.70288,1.89209 0,1.32447 -1.13525,0 q 1.13525,4.3518 2.83813,8.5144 1.51367,3.97339 2.83814,8.3252 1.13525,4.3518 2.83813,8.70361 Q 211.8706,598.99683 214.33032,602.78101 z m 30.65186,-1.13526 -0.56763,0.56763 -0.75684,-0.56763 0.75684,-0.75683 L 244.98218,601.64575 z m 0.56762,-0.75683 -1.13525,0 0.56763,-0.56763 L 245.5498,600.88892 z m 3.78418,-0.56763 -1.89209,0 0,-2.45972 1.89209,0 L 249.33398,600.32129 z m -10.5957,-1.89209 -0.75684,0.56763 -2.45971,0 1.32446,-2.45972 2.45972,1.32446 L 238.73828,598.4292 z m -19.48853,-8.13599 -1.89209,1.32447 -1.13525,-1.89209 1.13525,-1.89209 L 219.24975,590.29321 z m -8.13598,-1.32446 -0.56763,0.75684 -3.02734,-1.32447 2.45971,-4.91943 0.56763,0.56763 -0.56763,2.45971 0,0.75684 1.13526,-0.75684 1.32446,1.32447 L 211.11377,588.96875 z m 13.81225,-1.13525 -0.56762,0.56762 -0.75684,-0.56762 0.75684,-0.56763 L 224.92602,587.8335 z m 38.22022,0 -0.75684,0.56762 -1.13525,0 -0.75684,-1.89209 1.32447,-3.02734 1.32446,3.02734 -0.75684,0.75684 L 263.14624,587.8335 z m 8.13598,0 -0.75683,0.56762 -0.56763,-0.56762 0,-1.89209 1.89209,0.56762 -0.56763,0.75684 L 271.28222,587.8335 z m -62.06054,-6.81153 -0.56763,0.56763 -0.56763,-0.56763 0.56763,-0.75683 L 209.22168,581.02197 z m 46.92383,-1.89209 -0.56763,0.56763 -0.56763,-0.56763 0.56763,-1.32446 0.56763,0.56763 L 256.14551,579.12988 z m -42.38282,-7.00073 0.56763,0 0,-1.13525 -1.32446,-0.75684 L 213.76269,572.12915 z m 54.30298,-10.5957 0.56763,1.32446 -0.56763,0.56763 -1.89209,-1.32447 0.56763,-3.59497 1.32446,1.70288 L 268.06567,561.53345 z m -12.48779,-8.13599 -0.56763,0.56763 -1.89209,-1.70288 1.13526,-1.89209 1.32446,0 L 255.57788,553.39746 z m 11.16333,-1.13525 -0.56763,0.56762 -0.56762,-0.56762 0.56762,-3.78418 0.56763,0.56762 L 266.74121,552.26221 z m -11.73096,-9.46045 -1.89209,0 -0.75683,-1.89209 0.75683,-5.67627 1.89209,4.35181 L 255.01025,542.80176 z m 3.78418,-10.02808 -0.75683,0.56763 -0.56763,-0.56763 1.32446,-3.02734 1.13526,1.70288 L 258.79443,532.77368 z m 9.83887,-1.89209 -0.56763,0.56763 -1.32446,-1.13526 0.75684,-1.89209 1.13525,1.32447 L 268.6333,530.88159 z m -8.70361,-1.13525 -0.56763,0.56762 -0.56763,-0.56762 0.56763,-0.75684 L 259.92969,529.74634 z m 1.89209,0 -1.32447,-0.75684 0.75684,-0.56763 1.13525,0.56763 L 261.82178,529.74634 z m -25.54322,-1.89209 -1.89209,0 1.13526,-5.10864 0.75683,0.75683 L 236.27856,527.85425 z m 31.21949,-0.75684 -0.75684,0.75684 -0.56763,-0.75684 0.56763,-1.13525 0.75684,0.56763 L 267.49805,527.09741 z m -11.92017,-8.70361 -1.89209,0 q 0,-0.56763 0,-1.51367 0,-0.94605 0,-1.51367 0,-0.75684 0.37842,-1.32447 0.18921,-0.56762 0.94604,-1.32446 l 1.13526,1.32446 -0.56763,2.45972 L 255.57788,518.3938 z m 13.05542,-10.02808 -0.56763,0.75684 -1.32446,-7.56836 0.75684,-3.78418 3.02734,6.81152 -1.89209,3.21656 L 268.6333,508.36572 z m -19.86694,-12.48779 -0.75684,0.56763 -0.56763,-0.56763 0.56763,-0.56763 L 248.76636,495.87793 z m -33.11158,-10.5957 0,1.32446 -1.89209,0 0.56763,-3.21655 1.32446,1.32446 L 215.65478,485.28223 z m 56.7627,-10.59571 -0.56763,0.56763 -0.56763,-0.56763 0.56763,-0.75683 L 272.41748,474.68652 z m -60.54688,-3.78418 -0.75683,0.56763 -0.56763,-0.56763 0.56763,-1.32446 0.75683,0.75684 L 211.8706,470.90234 z m 0.56763,-1.32446 -0.56763,0.75684 -0.75683,-0.75684 1.32446,-2.45972 1.32446,0.56763 L 212.43823,469.57788 z m 27.4353,-8.13599 -0.56762,0.75684 -0.56763,-0.75684 0.56763,-0.56762 L 239.87353,461.44189 Z" />
        <path
           inkscape:connector-curvature="0"
           id="path4662"
           style="font-size:193.75px;font-family:'DEATH FONT ver1.0';-inkscape-font-specification:'DEATH FONT ver1.0'"
           d="m 421.36341,573.359 -0.56763,1.32447 -1.89209,0 -1.70288,-0.56763 0,2.27051 -1.32446,-2.27051 -0.56763,1.70288 -1.89209,0.56763 -0.56763,-1.13526 0.56763,-0.56762 -1.89209,-3.78418 -1.13527,0 1.13527,-0.56763 -3.02735,-1.89209 0.56763,-0.56763 q -0.56763,-0.56762 -1.13525,-1.51367 -0.56763,-0.94604 -1.70289,-0.94604 -1.32447,0 -1.89209,-0.18921 -0.75684,-0.37842 -1.89209,-0.37842 l -0.75684,0.56763 -4.91943,-3.02735 -1.70288,0.56763 0,1.32446 -0.75684,-1.32446 -1.70288,0.56763 0,-1.13526 -8.70361,-1.32446 -0.56763,-1.70288 -3.78418,-0.75684 -0.56763,0.75684 0,-1.32446 -1.89209,0 -0.56762,0.56762 -2.45972,-0.56762 0,-1.89209 -3.02734,0 0,1.32446 -1.32447,0 0,-1.32446 -3.59497,-0.56763 -0.56762,0.56763 -4.91944,-1.70288 -1.89209,0.56762 -0.56762,-3.02734 -2.45972,0 0,1.70288 0.56763,1.32446 -3.02735,-1.89209 -1.89209,0.56763 -1.89209,-1.13525 -0.56763,0.56762 -3.59497,-1.89209 -0.75683,0.75684 0,-1.32446 -5.48706,0 -0.56763,-1.13526 -1.32446,0.56763 -0.56763,-0.56763 -0.56763,0.56763 -5.48706,-1.89209 -0.75683,-1.13525 -3.59497,0.56762 q -1.32447,-0.56762 -2.83814,-1.13525 -1.51367,-0.75684 -3.02734,-0.94605 -1.51367,-0.37841 -3.02735,-0.37841 -1.51367,0 -2.83813,-1.32447 l -1.13525,0.75684 -3.21656,-1.32446 1.32447,-0.56763 -3.02735,-1.89209 -0.75683,0.56763 -2.45972,-1.13526 -2.45972,1.13526 -13.43384,-3.59497 -0.56762,0.56762 -3.21655,-1.13525 -0.56763,-1.32446 -0.56763,0.56762 -3.02734,-0.56762 -0.75684,0.56762 -1.70288,-1.13525 0.56763,-0.56763 -0.56763,-6.24389 0.56763,-0.56763 -0.56763,-0.56763 7.94678,-2.45972 0.56762,0.56763 0.56763,-1.32446 4.35181,-0.56763 1.32446,3.02735 1.70288,-4.1626 16.08277,-3.78418 0,1.32446 1.13525,0 1.89209,-2.45972 7.94678,-1.89209 1.32446,0.56763 7.94678,-3.02734 0,1.13525 1.89209,0 0.56762,-0.56763 -0.56762,-0.56762 1.13525,1.13525 0.75684,-1.70288 23.2727,-5.67627 1.13526,0.75684 0.75683,-0.75684 -0.75683,-0.56763 6.81152,-1.13525 0.56763,0.56763 q 1.89209,-1.89209 4.73022,-2.45972 2.64893,-0.56763 5.48706,-1.13525 2.83814,-0.75684 5.67627,-1.51368 2.64893,-0.94604 5.10864,-1.70288 l 2.45972,1.32447 1.13525,-1.89209 9.83887,-2.45972 -0.56763,1.32446 0.56763,0.56763 3.78418,-1.89209 0,-1.13525 0.56763,0 0.56763,0.56762 0.75683,-1.32446 0.56763,0.75684 0.56762,-0.75684 -0.56762,0.75684 1.89209,0.56762 1.70288,-2.45971 -1.13526,-0.56763 -0.56762,0.56763 3.02734,-5.48706 6.81152,-0.75684 0.56763,1.32446 0.56763,-1.32446 0.56763,1.32446 -0.56763,1.89209 -0.56763,-0.75683 -0.56763,3.78418 1.13526,0 -0.56763,0.56762 q 1.13526,0.56763 1.13526,1.51368 0,0.94604 0,1.89209 0,0.94604 0,1.89209 0,0.94604 0,1.51367 l -0.56763,0.56762 0.56763,0.56763 -0.56763,0.75684 0.56763,1.70288 -0.56763,4.91943 0.56763,1.89209 -1.13526,0 -0.56763,4.35181 1.13526,3.02734 0.56763,-0.56763 0,1.13526 -1.70289,1.32446 0.56763,1.13526 -0.56763,0.56762 1.13526,1.89209 -0.56763,-0.56762 -1.32446,3.02734 1.32446,0 -0.56763,1.32446 -1.89208,0 -3.02735,-0.75683 -1.32446,0.75683 -0.56763,-0.75683 0.56763,-2.45972 -0.56763,-0.56763 0.56763,-0.56762 -0.56763,-0.56763 0.56763,-1.89209 -1.89209,-1.32446 -4.1626,1.32446 0,-1.89209 -1.32446,0 -5.48706,1.32446 -0.56763,1.70288 -3.21655,0 0,1.32447 -0.56763,-0.56763 -3.59497,1.13525 -1.89209,-0.56762 -1.32446,0.56762 -0.56763,-0.56762 -2.45972,0.56762 -1.89209,-0.56762 -0.56762,2.45971 -1.89209,0 -0.56763,-0.56763 -0.56763,1.13526 0,-0.56763 1.13526,-2.45971 -1.70288,-3.78418 q -1.32447,0.75683 -1.32447,1.70288 0,0.75683 0,1.70288 0,0.94604 0,1.89209 0,0.94604 0,2.0813 l 0.56763,0.75683 q -0.56763,0.56763 -1.13525,1.51367 -0.56763,0.94605 -0.56763,1.89209 0,0.75684 0,1.70288 0,0.94605 0,2.27051 l 0.56763,9.08203 -0.56763,1.32447 0.56763,0.56762 -0.56763,0.56763 1.13525,2.45972 q 1.89209,0 3.40577,1.32446 1.51367,1.13525 3.78417,1.13525 2.0813,0 3.97339,0.37842 1.70288,0.37842 3.59497,0.94605 l 1.32447,2.45971 0.56762,-1.89209 1.89209,0 4.91944,1.32447 -0.75684,0.56762 2.45972,0.56763 3.78418,-1.13525 0.56762,1.70288 1.32447,-2.45972 2.45971,0 0,-1.13525 -0.75683,-0.56763 0.75683,-0.75684 -0.75683,-1.13525 1.32446,-3.78418 6.05469,-1.13525 1.89209,1.89209 0.56763,-0.75684 -0.56763,1.89209 0.56763,2.45972 -0.56763,0.56762 0.56763,8.70362 -0.56763,0.56762 0.56763,1.32447 -0.56763,1.13525 0.56763,1.32446 -1.13526,0 0,1.70288 1.13526,3.78418 -0.56763,1.13526 L 421.36341,573.359 z m -9.08204,-3.59497 -0.75683,0.56763 0.75683,0.56763 0.56763,-0.56763 L 412.28137,569.76403 z m -15.13671,-62.43896 -2.64893,-0.94605 -2.45972,0.75684 0,2.0813 3.40576,-0.18921 L 397.14466,507.32507 z m -5.67627,11.54175 0.56762,-0.56763 -2.45971,-0.37842 -0.94605,1.32447 2.45972,0.37841 L 391.46839,518.86682 z m 5.86547,0.18921 -0.1892,-1.89209 -5.29786,-1.51368 0.18921,2.0813 L 397.33386,519.05603 z m -8.5144,32.92236 -2.45972,-0.75684 0,1.32447 1.89209,2.45971 1.13526,-2.45971 L 388.81946,551.97839 z m -5.29785,-36.70654 -0.18921,-2.0813 -2.27051,-1.13526 -1.89209,0.94605 0.37842,1.89209 L 383.52161,515.27185 z m -10.5957,34.43603 -4.54102,-0.94604 0,2.0813 2.64893,0.37841 L 372.92591,549.70788 z m -4.35181,-20.62378 -0.56763,0 -0.75683,-0.56762 -10.4065,3.78418 -1.13525,-0.75684 q -2.45972,0.75684 -4.91944,1.32446 -2.45971,0.56763 -4.91944,1.32447 -2.45971,0.56762 -4.91943,1.89208 -2.45972,1.13526 -4.91944,1.13526 l 0.56763,1.70288 7.37915,1.32446 1.32446,2.45972 0.56763,-1.89209 0.56763,0 18.35327,5.48706 1.89209,-0.56763 1.32447,0.56763 1.70288,-4.91943 -0.56762,-1.13526 0.56762,-0.56762 -1.13525,-9.27124 0.56763,-0.56763 L 368.5741,529.0841 z m 0.75684,-9.46045 0.56762,-0.94604 q -0.56762,-0.37842 -1.13525,-0.56763 -0.75684,-0.37842 -1.32446,-0.37842 -0.75684,0 -1.70289,0 -0.94604,0 -1.51367,0.18921 l 0,1.89209 4.35181,0.56763 L 369.33094,519.62365 z m -13.05542,-6.05468 -2.64893,-0.56763 -0.75684,0.75683 2.64893,0.56763 L 356.27552,513.56897 z m -9.27125,2.64892 -1.13525,0 -1.89209,2.45972 0.56763,0.56763 2.45971,-0.56763 L 347.00427,516.21789 z m -0.37841,11.54175 -2.83814,-0.18921 0,0.94605 2.64893,0.37841 L 346.62586,527.75964 z m -8.13599,-12.10938 q -0.56763,0.56763 -0.94604,1.32447 -0.37842,0.56762 -0.37842,1.13525 0,0.56763 0,1.51367 0,0.94605 0,1.51368 l 0.75683,0.56762 -1.32446,1.32447 1.32446,1.89208 1.13526,-8.70361 L 338.48987,515.65026 z m -1.89209,1.89209 -0.56763,1.13526 0.56763,0.56763 0.56763,-1.13526 L 336.59778,517.54235 z m -1.13525,15.89356 -1.32448,4.35181 1.32448,0 1.13525,-1.32447 L 335.46253,533.43591 z m -1.32448,13.62305 -0.56762,1.13525 0.56762,0.56763 0.56764,-1.13526 L 334.13806,547.05896 z m -0.94604,-4.1626 0.56763,-0.75684 -1.13526,-0.75683 -2.0813,0.94604 1.70288,1.13526 L 333.19202,542.89636 z m -2.0813,2.83813 -1.89209,0 -0.56763,0.56763 2.45972,0.75684 0.56763,-0.75684 L 331.11072,545.73449 z m -2.83813,-16.8396 -3.02735,-0.75683 -2.64892,1.51367 2.83813,0.75684 L 328.27259,528.89489 z m -18.16407,5.48706 1.13526,-2.08129 -2.83814,-0.18921 -2.0813,0.37841 -0.18921,1.89209 3.21656,0.56763 L 310.10852,534.38195 z m 2.27051,-6.05468 -3.40576,-0.18921 -0.75684,0.37842 3.78418,0.56762 L 312.37903,528.32727 z m 3.21655,-0.56763 1.32447,-1.51367 -2.0813,-0.94605 -1.13526,1.70288 -1.32446,0.75684 2.45972,0.75684 L 315.59558,527.75964 z m -7.75756,-0.56763 -0.18921,-1.89209 -2.45972,0.18921 0.18921,1.89209 L 307.83802,527.19201 z m -24.78638,-1.13525 -0.56763,-0.56763 -1.13525,3.02735 1.13525,0 1.32446,-1.89209 L 283.05164,526.05676 Z" />
        <path
           inkscape:connector-curvature="0"
           id="path4664"
           style="font-size:193.75px;font-family:'DEATH FONT ver1.0';-inkscape-font-specification:'DEATH FONT ver1.0'"
           d="m 570.401,538.35535 -1.89209,7.56836 0.75683,3.21655 -0.75683,0.56763 1.32446,0.56762 0,2.45972 -0.56763,0 -0.75683,-0.56763 -1.13526,0.56763 -1.32446,-0.56763 -0.56763,0.56763 -1.89209,-0.56763 0,1.89209 -0.56762,0 -0.75684,-1.32446 0.75684,-1.89209 -1.32447,0 0,-1.70288 -1.32446,0 0,-1.32446 1.32446,-0.56763 -0.56762,-0.75684 0.56762,-2.45971 -3.78418,0 -1.89209,0.56762 -0.56762,-1.13525 -0.56763,0.56763 -1.89209,-0.56763 0.56763,-0.75684 -2.45972,-0.56762 -3.78418,1.89209 0,-1.32447 -4.35181,0 0,1.32447 -7.56836,0 0,-2.45972 -1.89209,0 -0.56762,-1.32446 -1.32447,3.21655 1.32447,0 0.56762,-0.75684 0,0.75684 -1.13525,0.56763 -0.75684,-0.56763 -4.91943,0.56763 -1.89209,-0.56763 -6.81152,0.56763 -1.89209,-0.56763 -6.2439,0.56763 -1.32446,-0.56763 -0.56763,0.56763 -0.75683,-0.56763 -6.2439,0.56763 0,-1.32447 -4.91944,-0.56762 -1.89208,1.89209 -5.67627,-1.89209 -2.45972,0.56762 0,-1.70288 -1.32446,0 -1.13526,2.45972 -0.56762,0 -5.67627,-1.32446 -0.56763,0.56762 0.56763,0.75684 -1.32447,0.56763 -1.13525,-1.89209 -2.64893,-0.56763 -4.91943,1.89209 -3.78418,-1.32446 -0.56763,0.56762 -0.56762,-0.56762 -0.75684,1.32446 0.75684,0.56763 -6.43311,0 -1.70288,-1.32447 q -1.32446,1.32447 -3.21655,1.32447 -1.89209,0 -3.78418,0 -1.89209,0 -3.78418,0 -1.89209,0 -3.02735,1.32446 l -3.21655,-1.32446 -3.02734,1.89209 2.45971,0.56762 1.32447,-0.56762 0,1.32446 -1.32447,2.45972 1.32447,0.56762 0.56762,3.78418 -0.56762,0.56763 4.3518,5.10864 0,1.13526 3.02735,1.89209 0.75683,2.45971 4.91944,1.32447 0,1.32446 1.89209,0 3.78418,3.02734 0.56762,-0.56762 2.45972,1.13525 -1.13525,1.32446 6.81152,2.45972 0.56763,-0.56763 5.67627,2.45972 0,1.32446 1.32446,0 -0.75684,1.89209 -1.13525,-0.75683 -0.75684,0.75683 0.75684,0.56763 -1.32446,0.56763 1.32446,0.75683 0,2.45972 -0.75684,0.56763 0,-1.13526 0.75684,-0.75683 -1.89209,-0.56763 0,2.45972 -11.35254,-3.78418 -1.13525,0.75683 -15.13672,-4.3518 0,-1.32447 -1.70288,-0.56762 -2.64893,0.56762 -0.56763,-1.89209 -5.67627,-3.21655 -0.56762,-1.70288 -1.89209,-0.75684 0,-8.13598 1.32446,-1.13526 -1.32446,-7.00073 0.56762,-3.02734 -0.56762,-0.56763 0.56762,-0.75684 -0.56762,-0.56762 0.56762,-0.56763 -0.56762,-0.75684 0.56762,-3.02734 -0.56762,-3.78418 1.32446,-0.56763 -0.75684,-2.64892 0.75684,-3.59497 -1.32446,0 0,-1.32447 0.56762,-0.56762 -0.56762,-2.64893 0.56762,-1.13525 -0.56762,-0.56763 0.56762,-1.32446 1.32447,-0.56763 -1.32447,-0.75683 -0.56762,-7.37916 0.56762,-0.75683 -0.56762,-8.13599 1.32446,-4.3518 -0.75684,-0.56763 -0.56762,0.56763 0.56762,-0.56763 -0.56762,-0.56763 1.89209,-3.78418 -1.89209,-5.10864 1.32446,-3.59497 1.13525,0.56763 9.46045,-3.78418 1.13526,0.56762 1.89209,-1.13525 1.32446,1.13525 0.56763,-1.89209 0.75683,0.75684 4.35181,-1.89209 0,1.13525 1.13525,0 1.89209,-0.56762 0,-1.13526 11.35254,-3.78418 1.89209,0.56763 0,-1.32446 3.59497,-0.56763 1.89209,6.81152 -0.56762,1.32447 -1.89209,0 -0.56763,-0.56763 -5.10864,3.78418 -0.56763,-0.75684 -0.56763,1.32447 -1.89209,0 0,1.32446 -3.78418,-0.75684 -1.89209,0.75684 q 0,0.56763 0,1.13525 0,0.56763 0,1.32447 0,0.56762 -0.94604,0.56762 -0.94605,0 -0.94605,0.56763 l -0.56762,-0.56763 -4.35181,3.21656 -2.45972,-0.75684 0,1.89209 0.56763,1.32446 -1.32446,0.56763 -0.56763,-0.56763 -3.21655,1.89209 -1.13526,3.02735 -1.32446,0 0,1.32446 0.75684,1.13525 -2.64893,5.10865 1.32446,1.13525 -1.32446,0 0,1.32446 -2.45972,1.89209 -0.56762,-0.56763 -0.56763,1.13526 2.45972,1.32446 0,-1.32446 3.02734,-0.56763 q 0.75684,1.32446 1.70288,1.70288 0.75684,0.18921 1.70288,0.56763 0.94605,0.18921 2.27051,0.18921 1.32446,0 2.45972,0 l 0,1.89209 1.89209,0 0,-1.13526 7.56836,-0.75683 1.13525,0.75683 0.75684,-0.75683 1.13525,0.75683 0.75684,-0.75683 3.02734,0.75683 4.35181,-0.75683 0.75683,0.75683 0.56763,-0.75683 0.56763,0.75683 0.56762,-0.75683 0.75684,0.75683 0.56763,-0.75683 1.32446,1.32446 q 0.56763,-0.56763 1.51367,-0.94604 0.94605,-0.37842 2.27051,-0.37842 1.13525,0 6.4331,-1.32446 5.29786,-1.51368 -2.08129,1.32446 l 0.56762,0.75683 8.70362,-0.75683 0.75683,0.75683 0.56763,-0.75683 3.78418,1.89209 q 0.56762,-1.13526 1.51367,-1.51367 0.94604,-0.37842 2.27051,-0.37842 1.13525,0 2.45971,0 1.13526,0 2.45972,0 l 0.56763,1.32446 0.75683,-0.56763 1.13526,0.56763 q 0.56763,-1.32446 1.51367,-1.32446 0.94604,0 1.89209,0 0.94604,0 1.89209,0 0.94604,0 2.27051,0 l 3.78418,0.75683 6.81152,-0.75683 0,1.89209 1.89209,0 0,-1.13526 1.13525,1.70289 1.32447,-1.13526 -0.56763,-0.56763 8.70361,-0.75683 0.56763,0.75683 3.78418,-0.75683 0.56763,0.75683 q 2.64892,-0.75683 5.10864,-0.75683 2.45972,0 5.10864,0 2.45972,0 4.73023,-0.94605 2.0813,-0.94604 3.97339,-2.0813 l 0.56762,-3.21655 -0.56762,-0.56762 0.56762,-1.32447 1.32447,0.75684 3.59497,-1.89209 1.32446,0.56763 1.89209,-0.56763 0.56763,19.86694 -0.56763,0.75684 L 570.401,538.35535 z m -0.56763,-1.89209 -0.56763,1.32446 0.56763,0.56763 0.56763,-1.13526 L 569.83337,536.46326 z m -3.02734,-6.62232 -3.78418,-1.32446 -0.75684,0.56763 3.78418,1.32446 L 566.80603,529.84094 z m 0,-1.32446 -0.94605,-0.75683 -0.56763,0.56762 0.94605,0.75684 L 566.80603,528.51648 z m -3.78418,8.70361 -1.32447,4.35181 1.89209,2.45972 1.13526,-3.02735 L 563.02185,537.22009 z m -5.10865,1.13526 -2.45971,5.10864 0.56762,0.56763 3.21656,-3.78418 L 557.9132,538.35535 z m -24.97558,-1.13526 -1.89209,0 0,1.89209 1.89209,0 L 532.93762,537.22009 z m -2.45972,-3.02734 -3.97339,-0.37842 -0.56763,0.75684 3.97339,0.37842 L 530.4779,534.19275 z m -4.54102,-0.37842 -1.13525,-0.37842 -0.75684,0.56763 1.32447,0.75684 L 525.93688,533.81433 z m -4.54101,2.83814 -7.75757,-2.0813 0,2.0813 7.00073,0.56762 L 521.39587,536.65247 z m -9.83887,-6.81153 0.75684,-0.56762 -1.89209,-1.51367 -2.0813,1.89208 2.45972,0.75684 L 511.557,529.84094 z m 2.0813,-0.37841 -0.56763,-0.56763 -0.75683,0.37842 0.56762,0.75683 L 513.6383,529.46253 z m -0.56763,-2.0813 0.75684,-1.32447 -0.56763,-0.56762 -1.51367,1.70288 0.56763,0.75683 L 513.07067,527.38123 z m -5.10864,14.19067 -0.75683,0.56763 0.75683,0.56762 0.56763,-0.56762 L 507.96203,541.5719 z m -1.32446,-16.27197 -1.32446,-0.18921 -0.37842,0.94604 1.32446,0.18921 L 506.63757,525.29993 z m -2.45972,0.18921 -3.02734,-0.37842 -0.37842,0.94604 3.02734,0.37842 L 504.17785,525.48914 z m -10.02807,13.62304 -1.89209,-0.75683 0,1.89209 0.56762,1.89209 1.89209,0 0,-2.45972 L 494.14978,539.11218 z m -3.21656,-8.5144 0.56763,-0.94605 -1.89209,-1.13525 -0.94605,3.02734 1.89209,-0.1892 L 490.93322,530.59778 z m -3.97339,0.18921 0,-1.32446 -0.75683,-0.56763 -1.70288,1.70288 L 486.95983,530.78699 z m 0.37842,7.00073 -1.32446,1.89209 1.89209,0.56763 0,-1.89209 L 487.33825,537.78772 z m -11.16333,-3.59497 -1.13525,-0.56763 -0.94605,0.56763 1.51367,0.75684 L 476.17492,534.19275 z m 3.78418,-0.37842 0.18921,-1.89209 -1.89209,0 -0.18921,1.89209 L 479.9591,533.81433 z m -5.67627,-5.29785 1.70288,-1.32446 -2.0813,-1.32446 -3.97338,3.02734 1.89208,0.56763 L 474.28283,528.51648 z m -6.4331,-44.65332 -0.18921,-1.51367 -1.70288,-0.75684 -0.75684,2.27051 L 467.84973,483.86316 z m -5.48706,53.35693 -2.64893,4.91944 0.75684,0.56762 3.02734,-3.59497 L 462.36267,537.22009 z m -32.54395,-14.37988 -0.75684,0.56763 0.75684,0.56763 0.56763,-0.56763 L 429.81872,522.84021 Z" />
        <path
           inkscape:connector-curvature="0"
           id="path4666"
           style="font-size:193.75px;font-family:'DEATH FONT ver1.0';-inkscape-font-specification:'DEATH FONT ver1.0'"
           d="m 568.98047,603.34863 -1.89209,-0.56762 2.45972,-4.35181 -1.32447,-2.64893 0.75684,-0.56762 -1.32446,-0.56763 4.3518,-1.32446 1.89209,0.56762 3.21656,-1.89209 1.32446,-4.3518 -0.75684,-0.56763 1.89209,-1.89209 -0.56763,-3.78418 1.32447,-2.64893 -0.75684,-3.02734 -1.13525,0 -0.75684,-1.32446 1.89209,-2.45972 -1.13525,-2.64892 0.56762,-0.56763 -0.56762,-0.56763 0.56762,-0.75683 -0.56762,-0.56763 0.56762,-0.56763 -1.32446,-0.75683 1.32446,0 0,-1.89209 1.32447,0 0,-4.91944 -1.32447,-3.21655 1.32447,-1.32446 -1.32447,-2.45972 -1.32446,-0.56763 0,-8.32519 0.75684,-1.89209 -0.75684,-4.91944 0.75684,-3.78418 -0.75684,-5.67626 1.32446,-1.32447 q -0.56762,-0.56762 -0.94604,-1.51367 -0.37842,-0.94604 -0.37842,-1.89209 0,-0.94604 0,-1.89209 0,-0.94604 0,-2.27051 l 0.75684,-2.45971 -0.75684,-0.75684 0.75684,-1.13525 -0.75684,-1.89209 2.64893,-1.32447 -0.75684,-0.56762 0.75684,-0.75684 -0.75684,-0.56763 0.75684,-1.32446 -1.89209,-3.78418 1.89209,-7.56836 -1.89209,-2.45972 1.13525,0 0.75684,-3.78417 -1.32447,-4.35181 0.56763,-6.43311 -1.13525,-2.45971 0.56762,-0.56763 -0.56762,-0.75684 1.13525,-0.56762 -1.13525,-0.56763 0.56762,-0.75684 q -0.56762,-1.13525 -1.89208,-1.51367 -1.32447,-0.37842 -2.64893,-0.94604 -1.13525,-0.56763 -2.0813,-0.94605 -0.94604,-0.37842 -2.27051,-0.94604 l -1.13525,0.56762 q -0.75684,-0.56762 -1.32446,-0.75683 -0.56763,-0.37842 -0.56763,-0.94605 0,-0.75683 0,-1.70288 0,-0.94604 0,-1.51367 l 0.56763,-3.78418 3.78418,0 1.32446,0.56763 0.56763,-0.56763 1.32446,0.56763 0.56763,-0.56763 0.56762,1.89209 3.78418,0 1.89209,-0.75684 0,-1.13525 3.21655,0 1.32447,0.56763 15.70434,-0.56763 3.78418,0.56763 0.56763,-0.56763 0.75684,0.56763 4.3518,-0.56763 0.56763,1.13525 -0.56763,3.21656 0.56763,3.78418 -1.89209,1.32446 -3.02734,-0.75684 0,1.89209 -3.21656,1.32447 -2.45971,11.92016 q 1.13525,0.75684 1.13525,2.0813 0,1.13526 0,2.83814 0,1.51367 0,2.83813 0,1.13525 0,2.45972 l -1.89209,0 0,2.45971 1.89209,0 0,7.56836 -1.13525,3.21656 q 1.13525,1.13525 1.13525,3.40576 0,2.27051 0,4.54101 0,2.0813 0,4.35181 0,2.0813 0.75684,3.97339 l 6.24389,1.89209 0.56763,-1.13525 0,1.13525 1.89209,0 0,-1.13525 4.54101,0 0.56763,0.56762 6.2439,-0.56762 3.21655,0.56762 q 1.32446,-0.56762 1.32446,-1.51367 0,-0.94604 0,-2.27051 0,-1.32446 0.18921,-1.89209 0.37842,-0.56762 0.37842,-1.89209 l 1.32446,0 0,-1.32446 -1.32446,-1.13525 1.32446,-0.75684 -0.75683,-1.89209 1.32446,-4.35181 -1.32446,0 -0.56763,-3.21655 0.56763,-0.56763 -1.13526,-0.56762 1.89209,0 1.13526,-5.10865 -2.45972,-0.56762 0,-2.64893 1.32446,-1.13525 -0.75683,-0.75684 0.75683,-1.13525 -0.75683,-2.64893 -1.13526,0 1.13526,-0.56762 -1.13526,-0.56763 0,-1.89209 3.02735,-4.54102 -1.89209,-1.13525 -1.13526,-4.54102 0.56763,-0.56762 -1.32446,-0.56763 -1.13526,-5.67627 -1.89209,-0.75684 -1.32446,0.75684 -3.21655,-1.32446 -1.13526,-1.89209 0.56763,-0.56763 -1.32446,-1.32446 0.75683,-1.32447 -0.75683,-3.02734 5.67627,0 0.75683,1.13525 q 0.56763,-0.56762 1.13526,-0.75683 0.75683,-0.37842 1.70288,-0.37842 0.94604,0 1.89209,0 0.94604,0 1.51367,0 l 1.32446,1.89209 0.56763,-0.75684 1.32446,0.75684 0.56763,-0.75684 -0.56763,-0.56762 5.67627,-0.56763 4.35181,1.13525 0,-1.13525 17.59644,0 0.75683,5.67627 -0.75683,2.45972 -1.89209,-1.89209 -3.02735,1.89209 0.56763,0.56762 -1.32446,0.75684 0.75683,0.56763 -3.21655,2.45971 -1.32446,2.64893 0.75683,8.13599 -1.32446,1.32446 q 1.32446,0.56763 1.32446,1.89209 0,1.13525 0,2.45972 0,1.32446 0,2.64892 0,1.13525 0,2.45972 l -0.75683,0.56762 0.75683,0.56763 -1.32446,0 0,1.89209 1.32446,0 0,8.3252 -1.32446,4.3518 1.32446,0 0,11.35254 -0.75683,0.56763 0.75683,8.32519 -1.32446,0.56763 q 1.32446,0.56763 1.32446,2.27051 0,1.51367 0,3.21655 0,1.51367 0,3.02735 0,1.51367 0,2.83813 l -1.32446,1.32446 q 1.32446,0.56763 1.32446,1.89209 0,1.13526 0,2.0813 0,0.94605 0,2.27051 0,1.32446 0,2.45972 l -1.32446,0 0,3.21655 q 1.32446,0.56763 1.32446,1.89209 0,1.32446 0,2.27051 0,0.94604 0,2.27051 0,1.13525 0,2.45971 l -1.32446,0 0,1.89209 q 1.32446,0.56763 1.32446,1.51367 0,0.94605 0,2.27051 0,1.13526 0,2.0813 0,0.94605 0,2.27051 l -1.32446,3.78418 1.32446,0 0,8.89282 0,-0.75684 -0.75683,-0.56762 -1.13526,3.21655 0.56763,0.56763 -0.56763,0.56762 1.89209,0.75684 0,-1.32446 0.56763,0 0.56763,2.45971 -0.56763,0.75684 1.32446,0.56763 0.56763,-0.56763 1.32446,1.89209 3.02735,0 -0.56763,0.56763 3.21655,1.32446 0,5.67627 -2.64892,0.56763 -1.13526,-0.56763 -2.64892,1.13525 -1.13526,-2.45971 -1.32446,1.32446 -2.45972,-1.32446 -3.78418,1.89209 -0.75683,-0.56763 -2.45972,1.13525 -0.56763,-0.56762 -2.64892,0.56762 -2.45972,-1.13525 -0.56763,0.56763 -1.32446,-0.56763 q -0.56763,0.56763 -1.89209,0.94604 -1.32446,0.18921 -2.27051,0.18921 -0.94604,0 -2.27051,0 -1.13525,0 -2.45971,0 l -0.56763,-0.56762 -3.21655,0.56762 -3.78418,-0.56762 -0.56763,0.56762 -1.89209,-0.56762 0,-3.78418 1.89209,-3.21656 -0.56763,-1.13525 1.13526,0 1.89209,2.45972 3.21655,-5.10865 2.45972,-1.13525 -0.56763,-3.21655 1.89209,-1.32447 -0.56763,-6.81152 0.56763,-1.32446 -0.56763,-1.89209 1.89209,-1.32446 -0.75683,-0.56763 1.32446,-4.35181 -1.32446,-1.32446 1.89209,-0.56763 -3.02735,-0.75683 0,-1.13526 1.89209,-1.32446 -1.32446,-0.56763 0,-1.32446 1.32446,0 0,-2.45972 -1.32446,0 -0.56763,-10.78491 0.56763,-3.21655 -0.56763,-0.56763 0.56763,-0.56763 -0.56763,-0.75683 0.56763,-0.56763 -0.56763,-5.10864 0.56763,-0.56763 -1.32446,-3.21655 -2.45972,-1.13526 -3.21655,0.56763 -3.78418,-0.56763 -14.37988,1.13526 -1.32447,4.54101 0.56763,5.67627 -0.56763,1.89209 0.56763,6.2439 -1.89209,0.56763 q 0.75684,0.75683 1.32446,1.13525 0.56763,0.18921 0.56763,1.51367 0,1.13526 0,1.89209 0,0.56763 0,1.89209 l -0.56763,1.89209 0.56763,12.4878 -0.56763,-0.56763 -1.32446,3.21655 1.32446,0 0.56763,11.92017 1.32446,0 0.56763,1.89209 1.32446,0.56762 1.89209,1.89209 0,1.32447 2.45972,0 1.32446,-0.56763 0.56763,4.91943 -0.56763,1.32447 -5.10864,1.32446 0,1.13525 -0.56763,0 -0.56762,-1.13525 -6.43311,1.13525 -0.56763,-1.89209 q -0.56762,0.75684 -1.51367,1.32447 -0.94604,0.56762 -2.27051,0.56762 -1.32446,0 -2.2705,0 -0.94605,0 -2.0813,0 l 0,-1.13525 -1.89209,-0.75684 -0.75684,1.32447 -0.56763,-1.32447 -0.56762,1.89209 -6.43311,0 -1.13525,-1.13525 -0.75684,0.56763 0,-3.21656 -1.13525,0 -1.32446,3.21656 L 568.98047,603.34863 z m 11.35254,-0.56762 0,-1.89209 -0.75684,-0.56763 -1.13525,1.89209 1.13525,1.13525 L 580.33301,602.78101 z m 1.89209,-0.56763 0,-0.75684 -0.75684,-0.56762 -0.56763,1.32446 0.56763,0.56763 L 582.2251,602.21338 z m 23.84033,-1.89209 0,-0.75684 -0.56763,-0.56762 -0.56762,1.32446 0.56762,0.56763 L 606.06543,600.32129 z m 0,-3.21655 0,-3.21656 -0.56763,-0.56762 -0.56762,3.78418 0.56762,0.56762 L 606.06543,597.10474 z m 36.70654,0 0,-3.78418 -0.75683,-1.89209 -1.89209,0 0,3.21655 1.89209,3.02734 L 642.77197,597.10474 z m 14.37989,-1.89209 -0.56763,-0.56763 -0.56763,0.56763 0.56763,0.56762 L 657.15186,595.21265 z m -78.14332,-4.35181 -1.32446,-0.75684 -0.56762,0.75684 1.32446,0.56763 L 579.00854,590.86084 z m 64.33106,-0.75684 0,-1.89209 -1.32446,0 -0.56763,0.75684 1.32446,1.89209 L 643.3396,590.104 z m -45.97778,-0.56762 0,-1.32447 -1.89209,-4.3518 -0.75684,1.89209 0.75684,3.78418 L 597.36182,589.53638 z m 30.84106,-1.32447 -0.56763,-0.56762 -0.75683,0.56762 0.75683,0.75684 L 628.20288,588.21191 z m -33.48999,-5.67627 0,-0.56762 -1.89209,0 0,1.32446 1.89209,1.13525 0.75684,-0.56762 L 594.71289,582.53564 z m 41.62598,-6.24389 0,-4.35181 0.75683,-1.32446 -1.89209,-3.21655 -1.32446,5.67627 0.56763,3.21655 L 636.33887,576.29175 z m -5.67627,-10.02808 0,-0.75683 -0.56763,-0.56763 -0.56763,1.32446 0.56763,0.56763 L 630.6626,566.26367 z m -34.62525,-10.21728 0.56763,-0.56763 -1.13525,-0.56763 -1.32447,1.13526 1.32447,0.75683 L 596.03735,556.04639 z m 51.65406,-1.89209 0,-3.02735 -0.56763,-0.75683 -0.56763,3.78418 0.56763,0.75683 L 647.69141,554.1543 z m -10.59571,-6.81153 0,-2.64892 -2.64892,-1.13526 0,1.89209 0.75683,1.89209 L 637.0957,547.34277 z m -48.05908,-1.32446 0,-2.45972 -1.89209,0 0,1.89209 1.32446,1.13526 L 589.03662,546.01831 z m 41.05835,-0.56763 0,-1.89209 -0.56763,-0.75683 -1.32446,1.89209 L 630.09497,545.45068 z m -41.62598,-3.21655 0,-2.45972 -0.56762,-0.75683 -1.32447,3.21655 L 588.46899,542.23413 z m 1.32447,-3.78418 -0.75684,-0.56763 -0.56763,0.56763 0.56763,0.56763 L 589.79346,538.44995 z m 40.86914,-0.56763 0,-1.89209 -1.13526,0 -0.75683,0.56763 1.32446,1.89209 L 630.6626,537.88232 z m -41.62598,-0.75683 0,-0.56763 -0.56763,-0.56763 -0.56762,1.89209 0.56762,0.56763 L 589.03662,537.12549 z m 27.81372,-3.02735 -1.89209,-0.75683 -0.56763,0.75683 1.89209,0.56763 L 616.85034,534.09814 z m 10.78491,0 0.56763,-0.75683 -1.89209,-0.56763 0,1.32446 0.56763,0.56763 L 627.63525,534.09814 z m 3.78418,0.56763 0,-1.89209 -1.32446,-1.32446 -1.32446,1.89209 L 631.41943,534.66577 z m 14.37989,-1.89209 0.75683,-1.89209 -0.75683,-0.56763 -1.13526,2.45972 0.56763,0.56763 L 645.79932,532.77368 z m -25.73243,-0.56763 0,-1.89209 -1.89209,0 0,1.89209 L 620.06689,532.20605 z m 27.05689,-3.21655 0,-0.56763 -0.56763,-0.75683 -0.75683,1.32446 0.75683,0.56763 L 647.12378,528.9895 z m -5.67627,-11.92016 0.56763,-1.32447 -1.13526,-1.32446 -0.75683,2.64893 0.75683,0.56762 L 641.44751,517.06934 z m -41.05835,-1.32447 0,-6.24389 -0.56763,-0.75684 -1.32446,5.10864 1.32446,2.45972 L 600.38916,515.74487 z m 41.62598,-1.32446 -0.56763,-0.56763 -0.56763,0.56763 0.56763,0.75684 L 642.01514,514.42041 z m 0.75683,-6.2439 0,-3.78418 -1.89209,0 0,2.45972 1.13526,1.89209 L 642.77197,508.17651 z m -57.51953,-0.56762 0,-1.32447 -0.56763,-0.56762 -0.56762,1.89209 0.56762,0.56762 L 585.25244,507.60889 z m 47.30225,-12.10938 0,-0.56763 1.32446,-3.21655 -1.89209,-0.56762 -0.56763,4.3518 0.56763,0.75684 L 632.55469,495.49951 z m 18.9209,-4.91943 0,-0.75684 -0.56763,-0.56762 -0.56763,1.32446 0.56763,0.56763 L 651.47559,490.58008 z m -23.27271,-16.46118 0,-0.56763 -0.56763,-0.75684 -0.75683,1.32447 0.75683,0.56762 L 628.20288,474.1189 z m -1.32446,-3.21656 -0.56763,-0.56762 -0.56763,0.56762 0.56763,0.75684 L 626.87842,470.90234 Z" />
        <path
           inkscape:connector-curvature="0"
           id="path4668"
           style="font-size:193.75px;font-family:'DEATH FONT ver1.0';-inkscape-font-specification:'DEATH FONT ver1.0'"
           d="m 739.79761,605.42993 -3.21656,-4.35181 0.56763,-1.13525 -1.89209,-5.10864 0.56763,-0.56763 -0.94605,-0.75683 -0.56762,-2.45972 -0.56763,0.56763 0,-5.48706 -1.89209,-0.75684 q -0.37842,-1.51367 -1.32446,-2.45972 -0.75684,-1.13525 -0.75684,-2.27051 0.18921,-1.32446 0,-2.08129 -0.18921,-0.94605 -0.75683,-2.27051 -0.56763,-0.56763 -1.13526,-1.32446 -0.37842,-0.75684 -0.75683,-1.32447 -0.18921,-0.56762 -0.56763,-1.51367 -0.18921,-1.13525 -0.75684,-1.70288 l 0.75684,-0.56763 -1.32446,-4.3518 0.75683,-1.89209 -2.45972,-0.18921 0,-0.56763 2.0813,-0.37842 -1.32446,-0.94604 0.18921,-1.13526 -1.13525,0 0.56762,-0.56762 -2.0813,-4.54102 -1.51367,0.37842 0.37842,-4.35181 1.13525,-0.94604 -2.45971,-2.27051 -0.75684,0.56763 -5.29785,-14.5691 0.75684,-2.08129 -1.89209,-5.67627 -1.89209,-0.75684 1.51367,-1.13525 -4.35181,-6.62232 -0.56763,-6.81152 -2.2705,-2.0813 1.70288,-4.35181 -3.02735,-1.32446 1.32447,-1.13525 -1.13526,-0.75684 -0.94604,-2.0813 -1.89209,-0.18921 -0.37842,3.78418 -1.13525,0 -0.18921,1.89209 0.37841,0.56763 -0.56762,0.56763 1.13525,0.56762 0.37842,1.32447 -2.27051,6.62231 0.94605,1.89209 -0.94605,2.45972 0.56763,0.75683 -1.51367,2.83814 0.56762,0.56762 -0.56762,0.56763 -0.18921,7.94678 -0.75684,0.75683 0.75684,5.10865 -2.0813,-3.97339 -1.32446,1.89209 2.64892,3.21655 -0.75683,1.89209 1.13525,0 -0.56763,12.29858 -1.89209,14.19068 0.37842,1.13525 -1.32446,6.62232 0.56763,0.75683 -0.94605,4.73023 0.37842,2.0813 -0.94605,2.2705 0.56763,0.56763 1.32446,-0.37842 1.51368,4.54102 1.13525,0.18921 0.37842,1.13525 -1.51367,4.1626 2.2705,1.32446 0.94605,-2.83813 -0.37842,-1.89209 0.56763,-0.56763 -0.37842,-0.56763 1.13525,0 0.37842,2.45972 1.70288,0.18921 0.18921,-1.89209 0.56763,2.64893 -0.94605,1.13525 0.75684,0.75684 -1.32446,0.37841 0.94604,2.64893 -0.75684,1.13525 -1.70288,-0.18921 -0.75683,-0.75683 -1.13526,0.56763 -0.56762,-0.75684 -2.45972,1.13525 -2.27051,-2.64892 -1.51367,0.94604 0.56763,0.75684 -3.59497,0.18921 0,-1.32447 -1.32447,0 -0.56762,0.56763 0.75683,-1.70288 -1.70288,-0.18921 -0.18921,1.89209 -4.91943,0 0.18921,-1.32446 -4.1626,-0.37842 -1.51367,0.56763 -0.75684,-3.78418 -1.32446,-0.18921 -0.37842,-1.13526 -0.56762,0.37842 0,-1.32446 0.75683,-0.94605 -0.94604,-1.51367 0.37841,0.94605 5.48706,-2.0813 1.32447,0.75684 3.40576,-2.64893 1.89209,-0.56763 1.32446,-2.45971 -1.32446,-5.48707 2.0813,-2.2705 -0.75684,-2.64893 0.75684,-2.45972 -0.56763,-0.56762 1.32446,-1.13526 0,-5.48706 0.56763,-0.56762 -0.94604,-1.51368 1.51367,-3.97338 -0.37842,-2.45972 0.75684,-1.32446 0,-5.48706 0.56762,-0.56763 -1.70288,-1.51367 0.75684,-0.37842 -0.18921,-6.81152 0.94604,-0.56763 -0.37841,-3.78418 1.70288,-4.35181 -1.32447,0 0,-0.75683 0.94605,-0.56763 -0.37842,-4.91943 0.94605,-1.70289 -0.18921,-5.67626 0.75683,-0.37842 -0.75683,-0.75684 1.89209,-4.73022 0.37841,1.13525 2.27051,-2.27051 -1.32446,-1.13525 -0.56763,0.37842 -0.37842,-1.13526 0.56763,-1.32446 -0.37842,-0.56763 0.56763,-0.56762 -0.94604,-1.89209 0.75683,-1.89209 -1.13525,-1.89209 1.32446,0 0.94605,-3.97339 -0.37842,-1.51367 0.56762,-0.37842 0,-5.48706 0.75684,-1.89209 -0.94604,-3.21656 1.70288,-4.73022 -0.75684,-3.78418 -1.89209,-0.18921 0,-0.56763 0.75684,-2.45971 q -1.89209,0.37842 -2.64893,-0.56763 -0.75684,-1.13525 -2.27051,-1.51367 -1.51367,-0.37842 -2.27051,-1.32446 -0.75683,-1.13526 -2.08129,-1.89209 l -0.94605,-2.64893 1.32446,-0.94604 -0.94604,-3.21656 3.21655,-0.94604 2.45972,0.75683 4.91943,0 2.27051,0.75684 5.10864,0 2.27051,0.75684 1.89209,-0.37842 1.13525,0.75683 1.89209,-0.37841 3.02735,1.32446 1.32446,-0.94605 1.13525,0.56763 1.32447,-0.37842 2.0813,5.10865 -1.51368,0.56762 1.70289,2.0813 -0.75684,2.27051 2.27051,1.32446 -0.75684,0.75684 q 1.13526,1.89209 2.27051,3.97339 1.13525,1.89209 1.89209,4.16259 0.75683,2.27051 1.13525,4.35181 0.37842,2.0813 0,4.54102 l 1.32447,0.18921 1.32446,5.10864 1.32446,0 -0.75683,0.75683 6.24389,19.11011 -0.75683,0.37842 1.70288,1.51367 6.81152,24.21875 1.32446,0.18921 0.94605,7.56836 1.89209,0.18921 2.64892,-6.62232 -2.0813,-3.21655 0.94605,0 2.45972,-4.73022 -2.83814,-1.51368 0.37842,-4.91943 0.75684,-1.32446 1.89209,-0.37842 -1.51368,-3.21655 -0.75683,1.13525 0.56762,-5.48706 0.56763,-0.56763 0.18921,-6.81152 0.56763,-0.37842 -0.56763,-0.75683 1.32446,-0.56763 -0.56762,-0.56763 0.75683,-1.89209 -1.13525,-0.18921 0.37842,-2.83813 0.56762,-0.56763 -0.37841,-1.32446 1.13525,-0.56763 -1.13525,-1.13525 1.32446,-0.75684 -1.13526,-0.56762 0.18921,-2.45972 0.75684,-0.56763 -0.37842,-2.45972 1.13526,0 2.2705,-4.16259 -2.2705,-2.0813 0.37841,-4.1626 2.0813,-1.13525 0.18921,-1.89209 -2.83813,-1.32447 0,-0.56762 0.75683,-1.32447 -0.56762,-0.56762 0.56762,-0.56763 -3.97339,-3.59497 -0.75683,1.89209 -1.13526,-2.0813 -1.13525,0.56763 -3.02734,-1.51367 -0.37842,-3.02735 0.94604,-2.45971 -0.56762,-0.56763 6.81152,-0.75684 5.29785,3.02735 2.64893,-2.27051 1.32446,0.75683 1.13525,-0.94604 0.56763,1.13525 0.75684,-1.13525 0.56762,0.18921 3.02735,0.75683 4.3518,-0.1892 3.02735,0.94604 0.56762,-0.56763 q 1.13526,0.75684 0.94605,1.70288 0,0.94605 0,1.89209 0,0.94605 -0.18921,1.89209 0,0.75684 -0.18921,2.0813 l -1.32446,-0.18921 -0.56763,-0.56762 -0.56763,1.13525 -2.08129,0.37842 0.56762,0.75683 -5.67627,1.13526 -0.37841,-0.56763 -1.51368,1.70288 0.56763,0.56763 -1.32446,0 -0.18921,2.45972 -0.37842,16.65039 -1.32446,6.62231 0.75683,0.75684 -1.51367,6.62231 0.75684,0.56763 -1.51367,6.81152 0.75683,0.56763 -1.32446,6.81152 0.56763,0.56763 -1.89209,5.86548 0.37841,1.51367 -1.13525,6.05469 0.37842,1.89209 -1.32446,2.45971 1.13525,0 -0.94605,3.59497 0.56763,0.75684 -2.0813,15.70435 0.56763,7.56836 -1.51367,6.62231 0.75683,0.75684 -1.51367,6.62231 0.75684,0.75684 -1.13526,4.73022 0,-1.13525 -1.70288,-0.18921 -0.18921,1.70288 q 0.56763,1.32446 0.94605,2.45972 0.56763,0.94604 0.37842,2.2705 -0.18921,1.13526 -0.37842,2.45972 0,1.13525 0.56763,2.27051 l -1.13526,5.29785 -0.56763,-0.18921 -2.45971,-0.75684 L 739.79761,605.42993 z m 8.32519,-3.78418 -0.56762,-0.75683 -0.56763,0.75683 0.56763,0.56763 L 748.1228,601.64575 z m -63.76343,-7.00073 -0.56762,-0.56763 -0.56763,0.56763 0.37842,0.75684 L 684.35937,594.64502 z m 1.89209,-0.37842 0.37842,-3.02734 -0.56762,-0.56763 -0.94605,3.59497 0.56763,0.56763 L 686.25146,594.2666 z m 58.27637,6.43311 0.37842,-2.45972 -1.89209,-0.18921 -0.37842,2.45972 L 744.52783,600.69971 z m -42.76123,-7.37915 -0.56763,-0.56763 -0.56762,1.13525 0.37842,0.75684 L 701.7666,593.32056 z m 45.78858,-5.29785 -0.56763,-0.56763 -0.56763,0.37842 0.56763,0.75683 L 747.55518,588.02271 z m -0.37842,-2.45972 1.70288,-3.02735 -2.0813,-3.97338 -1.51367,7.37915 1.32446,0 L 747.17676,585.56299 z m -9.27124,-5.86548 0,-0.56763 -0.37842,-0.75683 -0.75684,1.13525 0.56763,0.56763 L 737.90552,579.69751 z m 12.48779,-0.75684 0,-1.13525 -0.94604,-1.51367 -0.94605,2.45971 L 750.39331,578.94067 z m -2.0813,-4.3518 2.27051,-3.59497 -1.89209,-0.18921 -0.18921,1.32446 -0.94604,-0.94604 -0.94605,0.75683 1.13525,3.21655 L 748.31201,574.58887 z m -0.75683,-4.54102 -0.75684,-0.56763 -0.56763,0.56763 0.56763,0.56763 L 747.55518,570.04785 z m 0.56762,-0.37842 -0.37842,-0.94604 -0.94604,0.75683 L 748.1228,569.66943 z m 2.45972,-12.86621 0.75684,-0.56762 -1.70289,-0.75684 -0.1892,1.13525 0.56762,0.75684 L 750.58252,556.80322 z m -23.0835,-3.40576 0.37842,-3.02734 -0.56763,-0.94605 -0.94604,3.78418 0.56763,0.56763 L 727.49902,553.39746 z m 11.73096,1.70288 0,-1.13525 0.75684,-1.32447 -2.27051,-1.32446 -0.37842,3.59497 L 739.22998,555.10034 z m 9.08203,-0.37842 0.18921,-1.89209 0.94605,-2.2705 -2.45972,-0.18921 -0.94605,4.16259 L 748.31201,554.72192 z m -8.13598,-10.5957 0.1892,-1.32446 0.94605,-3.02735 -0.94605,-3.02734 -2.08129,7.18994 L 740.17603,544.12622 z m 9.46044,-2.83813 0,-0.56763 -0.37841,-0.75684 0.94604,-4.16259 -1.70288,-0.18921 -1.51367,1.70288 0.37842,3.78418 1.70288,0.56762 L 749.63647,541.28809 z m -13.43383,-6.81153 0.18921,-1.89209 -1.70289,-1.51367 -0.56762,0.37842 0.37842,0.75683 -0.56763,0.56763 1.70288,2.0813 L 736.20264,534.47656 z m -9.64966,-2.45971 0.75683,-0.56763 -1.13525,-1.89209 -1.51367,3.21655 1.32446,0 L 726.55298,532.01685 z m 7.00073,-1.13526 -1.70288,-1.51367 -0.75684,0.75684 1.70288,1.32446 L 733.55371,530.88159 z m 1.70288,-0.37842 -0.37842,-0.75683 -0.75683,0.56762 0.56762,0.75684 L 735.25659,530.50317 z m -7.75757,-2.0813 0,-0.56762 -0.37841,-0.56763 -0.75684,0.94605 0.56763,0.75683 L 727.49902,528.42187 z m -36.51733,-7.94677 -0.37842,-0.56763 -0.75683,0.37842 0.56762,0.94604 L 690.98169,520.4751 z m 31.5979,-3.59497 0.18921,-1.32447 -1.51367,-1.32446 -0.75684,2.45972 L 722.57959,516.88013 z m 0.18921,-2.45972 -0.56763,-0.75684 -0.94604,0.56763 0.75683,0.75684 L 722.7688,514.42041 z m 0.75683,-6.81152 0.18921,-1.89209 -1.32446,-1.13526 -0.94604,2.83814 L 723.52563,507.60889 z m -12.86621,-4.1626 0.18921,-1.89209 0.75684,-1.32446 -1.70288,-1.32447 -2.0813,0.94605 0.37842,3.21655 L 710.65942,503.44629 z m -11.92016,-4.54102 0.75683,-1.51367 -1.13525,-0.18921 -1.32446,1.13526 0.94604,1.32446 L 698.73926,498.90527 z m -12.677,-34.43603 -0.56763,-0.56763 -0.75684,0.37842 0.75684,0.75684 L 686.06226,464.46924 Z" />
        <path
           inkscape:connector-curvature="0"
           id="path4670"
           style="font-size:193.75px;font-family:'DEATH FONT ver1.0';-inkscape-font-specification:'DEATH FONT ver1.0'"
           d="m 811.02148,603.34863 -1.13525,-1.13525 -1.89209,0.56763 -0.56763,-1.13526 -1.13525,0.56763 0.56763,-0.56763 -1.32447,-0.56763 -0.56762,0.56763 0,-1.32446 -1.70288,0 0,1.32446 -0.75684,0 -3.02734,-1.32446 0,-1.70288 -1.13526,0 0,-1.32446 -1.89209,0 -1.13525,0.75683 -3.02735,-2.45972 1.13526,-0.75683 -2.45972,-0.56763 1.32446,0 0,-1.70288 -1.32446,0 0.56763,-0.75684 -2.45972,-1.70288 -0.56762,1.13526 q 0,-0.56763 0,-1.51367 0,-0.94605 0,-1.70288 0,-0.94605 -0.56763,-1.51368 -0.56763,-0.75683 -1.13526,-0.75683 l 0.56763,-1.89209 -1.89209,-0.56763 -1.13525,1.32446 -1.89209,-6.24389 0.56762,-0.56763 -3.59497,-3.59497 -1.32446,-3.02734 1.89209,-1.32447 0,-2.45971 -1.89209,0 0,1.32446 -1.70288,-5.48706 0.56763,-0.56763 q -0.56763,-0.56763 -1.32447,-1.13525 -0.56762,-0.75684 -0.56762,-1.70288 0,-0.94605 0,-1.70288 0,-0.94605 -0.56763,-1.51368 l 0.56763,-1.32446 -1.13526,-1.89209 1.13526,0 0,-1.70288 -1.70288,-3.02734 1.13525,0 0.56763,-1.89209 -1.13526,-3.02735 0.56763,-1.89209 -1.13525,0 -0.56763,0.56763 0,-3.02734 1.13525,-2.45972 -0.56762,-1.13525 1.13525,-0.56763 -0.56763,-0.56763 0.56763,-2.45972 -1.70288,0 0,-1.89209 1.13525,-0.56762 -1.13525,-0.56763 0.56763,-3.78418 1.13525,0 0,-1.13525 -1.13525,-3.59497 1.13525,-0.75684 -1.13525,-0.56763 2.45971,-1.89209 -1.89209,-0.56762 0,-0.56763 1.13526,-0.56763 -1.13526,-1.89209 1.89209,-0.56762 0,-1.89209 -1.89209,0 0,-0.56763 2.45972,-0.56763 0,-1.89209 1.13525,0 0,-3.02734 -1.13525,-2.45972 -0.56763,0.56763 0,-0.56763 0.56763,-0.56762 -0.56763,-0.56763 q 1.13526,-0.75684 1.13526,-1.89209 0,-1.13526 0,-2.27051 0,-1.32446 0.56762,-2.27051 0.56763,-0.94604 0.56763,-2.0813 l 1.32446,0 0,-1.89209 2.45972,-0.56762 0.56763,-5.48706 -0.56763,-1.32447 5.48706,-9.08203 1.70288,-0.56762 0.75684,-1.89209 1.70288,-0.56763 0,-1.32446 3.02734,-0.56763 0,-1.13526 -0.56762,-1.32446 1.89209,0 0,-1.13525 0.56762,0.56763 0.56763,-0.56763 0.75684,0.56763 1.13525,-3.02735 6.62231,-2.45972 3.21656,0.56763 0,-1.70288 1.70288,0 0.56762,0.56763 7.37915,-0.56763 7.94678,2.45972 0.56763,1.13525 1.89209,-0.56763 1.13525,1.13526 0.56763,-0.56763 6.81152,5.48706 0,1.89209 3.02735,1.13526 4.91943,7.37915 -1.89209,1.13525 4.35181,3.02734 0,3.78418 1.70288,0.56763 4.91943,17.59644 -0.56763,1.89209 1.70289,3.59497 -0.56763,1.32446 1.32446,3.59497 -1.32446,2.45972 1.32446,1.89209 0.56763,-0.75684 0,6.2439 -0.56763,0.56762 0.56763,4.1626 -0.56763,-0.56763 -1.32446,1.89209 1.89209,3.02735 -1.32446,0.56763 1.32446,0.56762 0,3.78418 q -0.56763,3.59497 -1.32446,7.37915 -0.56763,3.59497 -0.94605,7.18994 -0.18921,3.59497 -1.13525,7.37915 -0.94605,3.59497 -2.64893,6.62232 l 0.56763,1.89209 -1.32446,1.70288 -1.70289,0.56763 0.56763,0.75683 -1.13525,0.56763 1.13525,0.56763 -0.56763,0.56762 0.56763,1.89209 -1.89209,4.35181 -1.13525,0 -1.13526,2.27051 -1.32446,2.45971 0.56763,0.75684 -1.70288,0.56763 q 0,0.56762 0,1.51367 0,0.94604 -0.75684,1.32446 -0.56763,0.18921 -1.13525,0.75684 -0.56763,0.56762 -0.56763,1.32446 l -1.32446,0 -0.56763,1.70288 -1.89209,0.56763 -1.13525,1.89209 -4.35181,2.45972 0.75684,0.56762 -1.89209,0 -0.56763,-0.56762 -3.02734,3.02734 -3.02735,-0.56763 -1.32446,0.56763 -0.56763,-0.56763 -1.89209,0.56763 0,1.13525 -1.70288,0 -0.75684,-1.13525 -0.56762,1.13525 L 811.02148,603.34863 z m -4.16259,-3.59497 -0.56763,-0.56762 -0.75684,0.56762 0.75684,0.56763 L 806.85889,599.75366 z m 2.45971,-7.18994 0,-1.89209 0.56763,1.89209 6.62231,0.56763 1.89209,-1.32447 1.89209,0.75684 1.70289,-0.75684 0,-2.45971 2.45971,-1.13526 -1.13525,-0.56762 2.45972,-1.32447 1.13525,-4.73022 -0.56763,-0.75684 1.13526,-0.56762 -0.56763,-1.13526 1.89209,-1.32446 -0.56763,-4.1626 0.56763,-1.89209 0,1.13526 1.70288,0 0,-1.13526 -0.56763,-2.45971 1.89209,0 0,-1.13526 -0.56762,-1.89209 -1.32447,0 0,-3.02734 0.56763,-2.45972 1.32446,0 0,-1.13525 -0.56762,-2.45972 2.45971,-1.89209 -2.45971,-1.89209 0.56762,-0.56763 -0.56762,-1.13525 1.13525,-1.89209 -0.56763,-1.89209 0.56763,-1.13525 -0.56763,-3.59497 0.56763,-0.75684 -0.56763,-1.70288 0.56763,-1.89209 1.32446,0 0,-1.13525 -1.89209,-1.32447 0.56763,-0.56762 -0.56763,-2.45972 1.13526,-0.56763 -1.13526,-0.56763 0.56763,-0.75683 -0.56763,-0.56763 0.56763,-0.56763 -0.56763,-1.13525 1.13526,-1.32446 -1.13526,-1.13526 1.13526,-2.45971 -0.56763,-1.32447 0.56763,-0.56762 -1.13526,-1.70288 0.56763,-1.89209 -1.13525,0 0,-1.89209 1.13525,-2.45972 -0.56763,-0.56763 0.56763,-1.89209 -0.56763,-1.13525 1.13526,-0.56763 -1.13526,-1.32446 -0.56762,0.75684 -0.75684,-3.21656 1.32446,-3.59497 -1.32446,-3.02734 -1.13525,-0.56763 0,-7.94678 0.56762,-0.56762 -1.13525,-2.45972 -1.32446,-0.56763 -0.56763,-3.02734 1.89209,-0.75684 -3.02734,-3.59497 1.13525,-1.89209 -2.45972,-1.70288 0,-1.32446 -3.02734,-1.13525 -1.13526,-2.45972 -1.32446,0.56763 -1.13525,-1.89209 -0.56763,1.32446 -1.89209,-1.32446 -1.32446,0.75683 -0.56763,-0.75683 -3.59497,2.45971 -0.56763,-0.56762 -2.45971,3.02734 -1.32447,0 q 0,3.02734 -1.13525,5.48706 -1.13525,2.45972 -1.89209,5.29785 -0.56763,2.64893 -1.13525,5.48706 -0.56763,2.64893 -1.32447,5.10864 l -1.70288,0.56763 1.13526,3.59497 -3.02735,19.67774 -1.13525,0.56762 1.70288,3.59497 -0.56763,0.56763 0.56763,4.35181 -0.56763,0.56762 0.56763,1.13526 -0.56763,1.32446 0.56763,1.13526 -1.13525,-1.13526 -0.56763,3.59497 1.13525,1.89209 -0.56762,2.45972 1.13525,0 0,3.02734 -0.56763,0.56763 0.56763,0.56763 -1.13525,0 0,1.32446 q 1.13525,1.70288 1.51367,3.97339 0.37842,2.0813 0.37842,4.3518 0,2.0813 0.1892,4.1626 0.37842,2.0813 0.94605,3.97339 l -1.13525,1.13526 0.56762,0.56762 -0.56762,2.45972 1.70288,0 1.89209,7.94678 -0.56763,0.56762 5.48706,10.97412 -1.32446,1.32447 2.45971,4.16259 L 809.3186,592.56372 z m -9.27124,-7.37915 0,-2.45972 0.75684,-3.59497 -1.32446,-1.32446 -0.56763,7.37915 0.56763,0.56763 L 800.04736,585.18457 z m -13.24463,-2.45972 0.56763,-1.13525 0.56763,0.56763 0.56763,-1.89209 -2.45972,-1.89209 -0.56763,-1.13526 -0.56763,1.89209 1.13526,1.70288 -1.70288,0 0,1.32447 1.70288,1.13525 L 786.80273,582.72485 z m 4.73023,-1.13525 0,-3.78418 -0.56763,-0.56763 -0.56762,4.35181 0.56762,0.56763 L 791.53296,581.5896 z m 40.86914,-0.75684 0,-0.56762 -0.56763,-0.56763 -0.56762,1.13525 0.56762,0.75684 L 832.4021,580.83276 z m -32.35474,-3.59497 -0.56762,-0.56762 -0.56763,0.56762 0.56763,0.56763 L 800.04736,577.23779 z m 37.8418,0 0.56763,-0.56762 -1.70288,-1.89209 -1.32447,1.89209 1.89209,1.13525 L 837.88916,577.23779 z m -51.08643,-2.45971 -0.75683,-0.56763 -0.56763,0.56763 0.56763,0.56762 L 786.80273,574.77808 z m 50.5188,-1.89209 0,-1.13526 -1.89209,-2.45971 -0.56762,1.89209 1.89209,2.45971 L 837.32153,572.88599 z m -4.91943,-7.18995 -0.56763,-0.56762 -0.56762,0.56762 0.56762,0.56763 L 832.4021,565.69604 z m 3.59497,0 0,-0.56762 -0.56763,-0.75684 -0.56762,1.32446 0.56762,0.56763 L 835.99707,565.69604 z m -47.49145,-1.32446 0,-0.56762 -2.45972,-3.02735 -0.56763,1.32446 2.45972,3.02735 L 788.50562,564.37158 z m 48.24829,-0.56762 0,-1.13526 -0.75684,-0.56763 -0.56763,1.70289 0.56763,0.56762 L 836.75391,563.80396 z m 14.00146,-2.45972 0.56763,-1.13526 -0.56763,-1.89209 0.56763,-3.02734 -0.56763,-0.56763 -1.89209,5.48706 1.13526,1.89209 L 850.75537,561.34424 z m -67.73682,-2.45972 0,-2.27051 -1.13525,-2.45971 -0.56763,4.73022 L 783.01855,558.88452 z m -1.13525,-5.48706 0,-1.70288 -0.56763,-0.56763 -0.75683,3.02735 0.75683,0.56762 L 781.8833,553.39746 z m 51.08643,-3.02734 -0.56763,-0.56763 -0.56763,0.56763 0.56763,0.75683 L 832.96973,550.37012 z m 16.46118,-1.13526 0,-2.45971 -0.56763,-0.56763 -1.13525,3.02734 L 849.43091,549.23486 z m -70.57495,-1.32446 1.70288,-4.1626 -0.56763,-0.56762 -2.45972,4.73022 0.56763,0.75684 L 778.85596,547.9104 z m 7.18994,0 0,-0.56763 0.75683,-1.70288 -1.32446,-2.45971 -0.56763,4.73022 0.56763,0.75684 L 786.0459,547.9104 z m 62.81738,-3.02734 0,-1.70288 -1.89209,0 0,1.70288 L 848.86328,544.88306 z m -14.56909,-7.94678 0,-3.59497 -1.89209,0 0,3.02734 1.32446,1.32447 L 834.29419,536.93628 z m -46.3562,-0.56763 0,-3.02734 -1.13526,-3.02735 -0.75683,4.91944 1.32446,1.70288 L 787.93799,536.36865 z m 57.33032,-10.97412 0,-0.56763 -0.56763,-0.56762 -0.75683,1.13525 0.75683,0.75684 L 845.26831,525.39453 z m -6.05469,-1.13525 0,-3.02735 -0.75683,-0.56762 -0.56763,3.59497 0.56763,0.56762 L 839.21362,524.25928 z m -43.89648,-4.35181 0.56763,-1.13525 -2.45972,-1.32447 0,3.21656 1.13525,0 L 795.31714,519.90747 z m -10.4065,-3.02734 0,-4.1626 -1.89209,0 0,3.59497 1.32447,1.13525 L 784.91064,516.88013 z m 9.64966,-1.13526 0,-1.89209 0.75684,-2.45971 -0.75684,-0.56763 -1.13525,4.91943 0.56763,0.56763 L 794.5603,515.74487 z m 48.24829,-0.56762 0,-0.75684 0.56763,-1.13525 -0.56763,-0.56763 -1.32446,2.45972 0.75684,0.56762 L 842.80859,515.17725 z m 7.94678,-3.78418 0.56763,-4.1626 -1.89209,0 0,1.70288 0.56763,1.32446 -0.56763,1.13526 0.56763,0.56762 L 850.75537,511.39307 z m -65.84473,-0.56763 0,-2.45972 -1.89209,0 0,2.45972 L 784.91064,510.82544 z m 10.97413,-0.56763 -0.56763,-0.56762 -0.75684,0.56762 0.75684,0.56763 L 795.88477,510.25781 z m -1.89209,-1.89209 -0.56763,-0.56762 -0.56763,0.56762 0.56763,0.56763 L 793.99268,508.36572 z m -9.64966,-0.56762 0,-1.89209 0.56762,-1.70289 -2.45971,-1.32446 -1.89209,2.45972 0.75683,0.56763 1.13526,-0.56763 1.13525,3.02734 L 784.34302,507.7981 z m 58.46557,-0.56763 0,-1.89209 -0.56762,-0.56763 -0.75684,2.45972 0.75684,0.56763 L 842.80859,507.23047 z m -48.81591,-4.91943 0,-1.89209 -3.02735,-1.70289 -0.56762,2.27051 1.89208,1.89209 L 793.99268,502.31104 z m -2.45972,-7.37916 -1.13525,-1.13525 -1.32447,1.13525 1.89209,0.56763 L 791.53296,494.93188 z m 0.75683,-0.56762 -0.75683,-0.56763 -0.56763,0.56763 L 792.28979,494.36426 z m -8.70361,-9.64966 0,-1.89209 -0.56763,-0.56763 -1.13525,1.70288 L 783.58618,484.7146 z m 43.32886,-7.94678 -1.13525,-0.75683 -0.75684,0.75683 1.32446,0.56763 L 826.91504,476.76782 z m -35.94971,-3.78418 -0.56762,-0.56762 -0.56763,0.56762 0.56763,0.75684 L 790.96533,472.98364 Z" />
        <path
           inkscape:connector-curvature="0"
           id="path4672"
           style="font-size:193.75px;font-family:'DEATH FONT ver1.0';-inkscape-font-specification:'DEATH FONT ver1.0'"
           d="m 1007.756,538.35539 -1.8921,7.5684 0.7569,3.2165 -0.7569,0.5676 1.3245,0.5677 0,2.4597 -0.5676,0 -0.7569,-0.5677 -1.1352,0.5677 -1.3245,-0.5677 -0.5676,0.5677 -1.8921,-0.5677 0,1.8921 -0.5676,0 -0.7569,-1.3244 0.7569,-1.8921 -1.3245,0 0,-1.7029 -1.3245,0 0,-1.3245 1.3245,-0.5676 -0.5676,-0.7568 0.5676,-2.4597 -3.7842,0 -1.8921,0.5676 -0.5676,-1.1353 -0.5676,0.5677 -1.8921,-0.5677 0.5676,-0.7568 -2.4597,-0.5676 -3.7842,1.8921 0,-1.3245 -4.3518,0 0,1.3245 -7.5683,0 0,-2.4598 -1.8921,0 -0.5677,-1.3244 -1.3244,3.2165 1.3244,0 0.5677,-0.7568 0,0.7568 -1.1353,0.5677 -0.7568,-0.5677 -4.9195,0.5677 -1.892,-0.5677 -6.8116,0.5677 -1.8921,-0.5677 -6.2439,0.5677 -1.3244,-0.5677 -0.5677,0.5677 -0.7568,-0.5677 -6.2439,0.5677 0,-1.3245 -4.9194,-0.5676 -1.8921,1.8921 -5.6763,-1.8921 -2.4597,0.5676 0,-1.7029 -1.3245,0 -1.1352,2.4597 -0.5676,0 -5.6763,-1.3244 -0.5676,0.5676 0.5676,0.7568 -1.3245,0.5677 -1.1352,-1.8921 -2.649,-0.5677 -4.9194,1.8921 -3.7842,-1.3244 -0.5676,0.5676 -0.5676,-0.5676 -0.7569,1.3244 0.7569,0.5677 -6.4331,0 -1.7029,-1.3245 q -1.3245,1.3245 -3.2166,1.3245 -1.892,0 -3.7841,0 -1.8921,0 -3.7842,0 -1.8921,0 -3.0274,1.3244 l -3.2165,-1.3244 -3.0274,1.8921 2.4598,0.5676 1.3244,-0.5676 0,1.3244 -1.3244,2.4597 1.3244,0.5677 0.5676,3.7841 -0.5676,0.5677 4.3518,5.1086 0,1.1353 3.0274,1.8921 0.7568,2.4597 4.9194,1.3244 0,1.3245 1.8921,0 3.7842,3.0273 0.5676,-0.5676 2.4598,1.1353 -1.1353,1.3244 6.8115,2.4598 0.5677,-0.5677 5.6762,2.4597 0,1.3245 1.3245,0 -0.7569,1.8921 -1.1352,-0.7568 -0.7568,0.7568 0.7568,0.5676 -1.3245,0.5677 1.3245,0.7568 0,2.4597 -0.7568,0.5676 0,-1.1352 0.7568,-0.7569 -1.8921,-0.5676 0,2.4597 -11.3525,-3.7841 -1.1353,0.7568 -15.1367,-4.3518 0,-1.3245 -1.7029,-0.5676 -2.6489,0.5676 -0.5676,-1.8921 -5.6763,-3.2165 -0.56763,-1.7029 -1.89209,-0.7568 0,-8.136 1.32446,-1.1353 -1.32446,-7.0007 0.56762,-3.0274 -0.56762,-0.5676 0.56762,-0.7568 -0.56762,-0.5677 0.56762,-0.5676 -0.56762,-0.7568 0.56762,-3.0274 -0.56762,-3.7841 1.32446,-0.5677 -0.75684,-2.6489 0.75684,-3.595 -1.32446,0 0,-1.3244 0.56762,-0.5677 -0.56762,-2.6489 0.56762,-1.1352 -0.56762,-0.5677 0.56762,-1.3244 1.32447,-0.5677 -1.32447,-0.7568 -0.56762,-7.3791 0.56762,-0.7569 -0.56762,-8.136 1.32446,-4.3518 -0.75684,-0.5676 -0.56762,0.5676 0.56762,-0.5676 -0.56762,-0.5676 1.89209,-3.7842 -1.89209,-5.1086 1.32446,-3.595 1.13526,0.5676 9.4604,-3.7842 1.1353,0.5677 1.8921,-1.1353 1.3244,1.1353 0.5677,-1.8921 0.7568,0.7568 4.3518,-1.8921 0,1.1353 1.1353,0 1.8921,-0.5677 0,-1.1352 11.3525,-3.7842 1.8921,0.5676 0,-1.3244 3.595,-0.5677 1.892,6.8116 -0.5676,1.3244 -1.8921,0 -0.5676,-0.5676 -5.1086,3.7842 -0.5677,-0.7568 -0.5676,1.3244 -1.8921,0 0,1.3245 -3.7842,-0.7569 -1.8921,0.7569 q 0,0.5676 0,1.1352 0,0.5677 0,1.3245 0,0.5676 -0.946,0.5676 -0.946,0 -0.946,0.5676 l -0.5677,-0.5676 -4.3518,3.2166 -2.4597,-0.7569 0,1.8921 0.5676,1.3245 -1.3244,0.5676 -0.5677,-0.5676 -3.2165,1.8921 -1.1353,3.0273 -1.3244,0 0,1.3245 0.7568,1.1352 -2.6489,5.1087 1.3244,1.1352 -1.3244,0 0,1.3245 -2.4597,1.8921 -0.5677,-0.5676 -0.5676,1.1352 2.4597,1.3245 0,-1.3245 3.0274,-0.5676 q 0.7568,1.3244 1.7029,1.7029 0.7568,0.1892 1.7028,0.5676 0.9461,0.1892 2.2705,0.1892 1.3245,0 2.4598,0 l 0,1.8921 1.8921,0 0,-1.1353 7.5683,-0.7568 1.1353,0.7568 0.7568,-0.7568 1.1353,0.7568 0.7568,-0.7568 3.0273,0.7568 4.3518,-0.7568 0.7569,0.7568 0.5676,-0.7568 0.5676,0.7568 0.5677,-0.7568 0.7568,0.7568 0.5676,-0.7568 1.3245,1.3245 q 0.5676,-0.5677 1.5137,-0.9461 0.946,-0.3784 2.2705,-0.3784 1.1352,0 6.4331,-1.3245 5.2978,-1.5136 -2.0813,1.3245 l 0.5676,0.7568 8.7036,-0.7568 0.7568,0.7568 0.5677,-0.7568 3.7842,1.8921 q 0.5676,-1.1353 1.5136,-1.5137 0.9461,-0.3784 2.2705,-0.3784 1.1353,0 2.4597,0 1.1353,0 2.4598,0 l 0.5676,1.3245 0.7568,-0.5677 1.1353,0.5677 q 0.5676,-1.3245 1.5137,-1.3245 0.946,0 1.892,0 0.9461,0 1.8921,0 0.9461,0 2.2705,0 l 3.7842,0.7568 6.8115,-0.7568 0,1.8921 1.8921,0 0,-1.1353 1.1353,1.7029 1.3245,-1.1352 -0.5677,-0.5677 8.7036,-0.7568 0.5677,0.7568 3.7841,-0.7568 0.5677,0.7568 q 2.6489,-0.7568 5.1086,-0.7568 2.4597,0 5.1087,0 2.4597,0 4.7302,-0.946 2.0813,-0.9461 3.9734,-2.0813 l 0.5676,-3.2166 -0.5676,-0.5676 0.5676,-1.3245 1.3245,0.7569 3.5949,-1.8921 1.3245,0.5676 1.8921,-0.5676 0.5676,19.8669 -0.5676,0.7568 L 1007.756,538.35539 z m -0.5676,-1.8921 -0.5676,1.3245 0.5676,0.5676 0.5676,-1.1353 L 1007.1884,536.46329 z m -3.0273,-6.6223 -3.7842,-1.3245 -0.7569,0.5677 3.7842,1.3244 L 1004.1611,529.84099 z m 0,-1.3245 -0.9461,-0.7568 -0.5676,0.5676 0.946,0.7569 L 1004.1611,528.51649 z m -3.7842,8.7036 -1.3245,4.3519 1.8921,2.4597 1.1353,-3.0274 L 1000.3769,537.22009 z m -5.1087,1.1353 -2.4597,5.1086 0.5676,0.5677 3.2166,-3.7842 L 995.2682,538.35539 z m -24.9756,-1.1353 -1.892,0 0,1.8921 1.892,0 L 970.2926,537.22009 z m -2.4597,-3.0273 -3.9734,-0.3784 -0.5676,0.7568 3.9734,0.3784 L 967.8329,534.19279 z m -4.541,-0.3784 -1.1352,-0.3784 -0.7569,0.5676 1.3245,0.7568 L 963.2919,533.81439 z m -4.541,2.8381 -7.7576,-2.0813 0,2.0813 7.0008,0.5676 L 958.7509,536.65249 z m -9.8389,-6.8115 0.7569,-0.5676 -1.8921,-1.5137 -2.0813,1.8921 2.4597,0.7568 L 948.912,529.84099 z m 2.0813,-0.3784 -0.5676,-0.5677 -0.7568,0.3785 0.5676,0.7568 L 950.9933,529.46259 z m -0.5676,-2.0813 0.7568,-1.3245 -0.5676,-0.5676 -1.5137,1.7029 0.5677,0.7568 L 950.4257,527.38129 z m -5.1086,14.1906 -0.7569,0.5677 0.7569,0.5676 0.5676,-0.5676 L 945.3171,541.57189 z m -1.3245,-16.2719 -1.3245,-0.1892 -0.3784,0.946 1.3245,0.1892 L 943.9926,525.29999 z m -2.4597,0.1892 -3.0274,-0.3784 -0.3784,0.946 3.0274,0.3784 L 941.5329,525.48919 z m -10.0281,13.623 -1.8921,-0.7568 0,1.8921 0.5676,1.8921 1.8921,0 0,-2.4597 L 931.5048,539.11219 z m -3.2166,-8.5144 0.5677,-0.946 -1.8921,-1.1353 -0.9461,3.0274 1.8921,-0.1892 L 928.2882,530.59779 z m -3.9733,0.1892 0,-1.3244 -0.7569,-0.5677 -1.7029,1.7029 L 924.3149,530.78699 z m 0.3784,7.0008 -1.3245,1.8921 1.8921,0.5676 0,-1.8921 L 924.6933,537.78779 z m -11.1634,-3.595 -1.1352,-0.5676 -0.9461,0.5676 1.5137,0.7568 L 913.5299,534.19279 z m 3.7842,-0.3784 0.1892,-1.8921 -1.8921,0 -0.1892,1.8921 L 917.3141,533.81439 z m -5.6762,-5.2979 1.7028,-1.3244 -2.0813,-1.3245 -3.9733,3.0274 1.892,0.5676 L 911.6379,528.51649 z m -6.4331,-44.6533 -0.1893,-1.5137 -1.7028,-0.7568 -0.7569,2.2705 L 905.2048,483.86319 z m -5.4871,53.3569 -2.6489,4.9195 0.7568,0.5676 3.0273,-3.595 L 899.7177,537.22009 z m -32.54396,-14.3798 -0.75684,0.5676 0.75684,0.5676 0.56763,-0.5676 L 867.17374,522.84029 Z" />
        <path
           inkscape:connector-curvature="0"
           id="path4674"
           style="font-size:193.75px;font-family:'DEATH FONT ver1.0';-inkscape-font-specification:'DEATH FONT ver1.0'"
           d="m 1071.8831,602.78101 -4.3518,-1.13526 -0.5677,1.13526 -0.7568,-0.56763 -0.5676,0.56763 0.5676,-0.56763 -3.0274,-1.32446 -0.5676,1.32446 -1.8921,0.56763 -4.541,-1.13526 -1.7029,1.13526 -5.1086,-0.56763 -0.5676,0.56763 -1.3245,0 -0.5676,-1.13526 -0.5677,1.13526 0,-1.13526 -2.6489,-0.75683 -1.8921,1.89209 -4.9194,-0.56763 -1.3245,0.56763 -1.1352,-0.56763 -0.5676,0.56763 -5.6763,-1.13526 -0.7569,-1.89209 -2.4597,1.13526 0,1.32446 -3.0273,-1.32446 -1.3245,1.32446 -0.5676,-0.56763 -1.8921,0 0,1.13526 -0.5676,-1.89209 -2.6489,0.75683 0.7568,0.56763 -0.7568,0.56763 -0.5677,-0.56763 -1.3244,0.56763 -1.7029,-0.56763 -0.7569,0.56763 -1.892,-1.89209 -4.9195,1.89209 -1.3244,-1.13526 1.3244,-7.00073 q 0.5676,-1.13525 2.0813,-1.13525 1.7029,0 2.6489,-0.56763 0.9461,-0.75684 2.0813,-1.32446 1.3245,-0.75684 1.8921,-1.89209 l 2.4598,5.67627 0.7568,-0.75684 q 0,-0.56763 0,-1.51367 0,-0.94605 0,-1.89209 0,-0.94605 -0.7568,-1.51367 -0.5677,-0.75684 -1.1353,-1.32447 l 0.5676,-0.56762 -0.5676,-0.56763 1.8921,-3.78418 -0.7568,-1.32446 0.7568,-1.13526 0,-2.64892 -1.3245,0 0.5677,-9.27124 1.892,-0.75684 1.3245,-4.91943 -0.5676,-0.56763 -1.8921,0 0,3.02734 -0.7568,-0.56762 -0.5677,0.56762 0.5677,-0.56762 -0.5677,-0.56763 1.3245,-0.75684 -1.3245,-1.13525 0.5677,-3.78418 -0.5677,-3.78418 1.8921,-3.78418 -1.3244,-3.02734 0.7568,-1.32447 -1.3245,-7.56835 1.8921,-4.35181 -0.5676,-2.45972 -0.7568,1.32446 -0.5677,-1.32446 q 0,-1.32446 0,-2.0813 0,-0.94604 0,-2.27051 0,-1.32446 0.5677,-2.2705 0.7568,-0.94605 1.3244,-1.51367 l -1.3244,-0.56763 0,-0.56763 2.6489,-1.89209 -1.3245,-2.64892 -1.8921,-2.45972 0.5677,-1.13525 -0.5677,-1.89209 0.5677,-0.75684 -0.5677,-0.56763 0,-0.56762 1.3245,0 -1.3245,-5.10865 0,-0.56762 0.5677,1.32446 0.7568,-0.75684 0,-3.78418 -1.3245,0 0,-9.27124 1.3245,1.89209 0.5676,-0.56762 -0.5676,-5.67627 -1.3245,0 0.5677,-1.32447 -0.5677,-0.56762 1.3245,-0.56763 -0.7568,-0.75684 0.7568,-0.56762 0,-1.32447 -1.3245,0 1.3245,-0.56762 -1.3245,-0.56763 1.3245,-2.45972 -0.7568,-0.75683 1.3244,0 0,-3.02735 -1.8921,0 -1.8921,-5.67627 -1.1352,0 -0.7569,-1.89209 -1.1352,1.32447 0.5676,0.56762 -1.3244,0 -0.5677,-1.32446 -0.5676,0.75684 -3.2166,-1.32447 1.3245,-1.89209 -0.5676,-1.13525 0.5676,-0.75684 -0.5676,-0.56762 1.7029,-3.78418 0.7568,1.32446 0.5676,-0.75684 0.5677,0.75684 0.7568,-0.75684 0.5676,0.75684 1.3245,0 0,-1.32446 3.0273,1.32446 4.3518,-1.32446 5.1087,0.56762 2.4597,-0.56762 4.3518,0.56762 0.5676,-0.56762 18.1641,0.56762 0.5676,-0.56762 12.677,0 -0.7568,0.56762 0.7568,0.75684 5.4871,-1.32446 2.4597,0.56762 0.7568,-0.56762 -0.7568,0.56762 0,1.32447 3.2165,1.32446 3.7842,8.13599 -1.8921,-1.32447 -0.5676,0.56763 3.0274,2.45972 2.4597,12.677 1.8921,0.56763 1.3244,4.3518 0,3.78418 -3.2165,1.89209 -0.5677,0 -0.5676,-1.32446 -1.3244,1.32446 -1.1353,0 -1.3245,-2.45971 0,-0.75684 2.4598,2.45972 0.5676,-0.56763 q 0,-0.56763 0,-1.51367 0,-0.94605 0,-1.51367 0,-0.75684 -0.5676,-0.94605 -0.5677,-0.37842 -1.1353,-0.94604 l -1.8921,0.56762 0,1.32447 -8.8928,-12.4878 -2.4597,-2.64892 -0.5677,0.75683 -0.5676,-1.89209 0.5676,-0.75683 -0.5676,-0.56763 -1.3244,0.56763 -5.1087,-4.91944 -0.5676,0.56763 0.5676,-0.56763 0,-1.32446 -2.4597,1.89209 -1.1353,-2.45972 -5.1086,1.89209 -0.5676,-0.56762 -1.3245,0.56762 -1.8921,-0.56762 -4.9194,3.02734 0.5676,3.21655 -0.5676,1.13526 -1.8921,1.32446 0.5676,0.56763 -0.5676,0.75683 1.8921,1.13526 0,1.32446 -1.3245,0 0,1.89209 -1.1352,0.56763 1.8921,2.45971 -0.7569,0.56763 1.3245,0.75684 0,1.89209 -1.3245,0 -0.5676,2.45971 0,1.32447 1.8921,0 -0.5676,4.3518 0.5676,0.56763 -0.5676,0.56763 0.5676,2.45971 0,7.56836 -2.4597,-1.89209 -1.3245,1.32447 1.8921,1.89209 q 0.5676,1.89209 0.946,3.40576 0.3785,1.51367 0.5677,3.21655 0.3784,1.51367 0.3784,3.40576 0,1.89209 1.8921,2.45972 l 4.9194,-1.32446 1.8921,0.75683 1.8921,-1.89209 -0.5676,-1.32446 4.3518,-8.13599 1.3244,0.56763 0.5677,-0.56763 -0.5677,-1.32446 1.1353,-7.37915 1.3244,0 0,-1.32446 1.8921,0.56762 1.8921,1.89209 -0.7568,0.75684 0.7568,1.89209 -0.7568,10.5957 0.7568,1.13526 -1.3244,0 0.5676,2.64892 -0.5676,0.56763 0,1.32446 1.3244,0 -0.7568,15.51514 0.7568,1.32446 -0.7568,16.27197 -2.4597,1.13526 -2.4597,-0.56763 -0.5677,-1.89209 0,-4.35181 0.5677,2.45972 1.892,-2.45972 -1.3244,-3.21655 -5.6763,-11.73096 -5.487,-3.21655 -5.1087,1.89209 -1.1352,3.21655 0.5676,0.56763 -0.5676,6.81152 0.5676,0.56763 q 0,1.32446 0,2.27051 0,0.94604 0,2.27051 0,1.13525 -0.7569,2.0813 -0.5676,0.94604 -1.1352,1.51367 l 0.5676,0.75683 0,0.56763 -1.1352,0.56763 1.8921,0.75683 0.5676,1.89209 -0.5676,16.08277 0.5676,0.75683 -0.5676,1.13526 1.1352,8.13598 -0.5676,3.78418 0.5676,3.78418 1.8921,0.56763 0.5676,-0.56763 0.7569,0 -0.7569,0.56763 1.3245,1.89209 1.8921,0 -1.3245,-2.45972 3.2166,1.32447 1.3244,-0.75684 3.0274,1.32446 2.4597,0 0,-1.89209 1.8921,0.56763 0.5676,-1.13525 3.2166,-1.32447 3.7841,-4.91943 0.5677,0.56763 2.4597,-1.89209 -1.1353,-0.56763 1.1353,0 2.6489,-5.67627 1.7029,-1.32446 0,-1.89209 0.7568,0.75683 1.1353,0 0,-1.32446 2.6489,-1.13525 -0.7568,-1.89209 1.3244,-3.21656 0.5677,0.56763 1.3244,0 0,-1.70288 -1.3244,0 -0.5677,-1.32446 2.4598,-1.32447 -0.5677,-0.56762 1.8921,1.32446 0.5676,-0.75684 0.5677,1.32447 0.7568,-0.56763 1.1353,1.13525 0.7568,-1.13525 1.7029,1.13525 -1.7029,1.89209 0,1.32447 1.1352,0 q -1.1352,4.3518 -2.8381,8.5144 -1.5137,3.97339 -2.8381,8.3252 -1.1353,4.3518 -2.8382,8.70361 Q 1074.3428,598.99683 1071.8831,602.78101 z m -30.6519,-1.13526 0.5676,0.56763 0.7569,-0.56763 -0.7569,-0.75683 L 1041.2312,601.64575 z m -0.5676,-0.75683 1.1352,0 -0.5676,-0.56763 L 1040.6636,600.88892 z m -3.7842,-0.56763 1.8921,0 0,-2.45972 -1.8921,0 L 1036.8794,600.32129 z m 10.5957,-1.89209 0.7568,0.56763 2.4598,0 -1.3245,-2.45972 -2.4597,1.32446 L 1047.4751,598.4292 z m 19.4885,-8.13599 1.8921,1.32447 1.1353,-1.89209 -1.1353,-1.89209 L 1066.9636,590.29321 z m 8.136,-1.32446 0.5676,0.75684 3.0274,-1.32447 -2.4597,-4.91943 -0.5677,0.56763 0.5677,2.45971 0,0.75684 -1.1353,-0.75684 -1.3245,1.32447 L 1075.0996,588.96875 z m -13.8122,-1.13525 0.5676,0.56762 0.7568,-0.56762 -0.7568,-0.56763 L 1061.2874,587.8335 z m -38.2203,0 0.7569,0.56762 1.1352,0 0.7569,-1.89209 -1.3245,-3.02734 -1.3245,3.02734 0.7569,0.75684 L 1023.0671,587.8335 z m -8.1359,0 0.7568,0.56762 0.5676,-0.56762 0,-1.89209 -1.8921,0.56762 0.5677,0.75684 L 1014.9312,587.8335 z m 62.0605,-6.81153 0.5676,0.56763 0.5677,-0.56763 -0.5677,-0.75683 L 1076.9917,581.02197 z m -46.9238,-1.89209 0.5676,0.56763 0.5676,-0.56763 -0.5676,-1.32446 -0.5676,0.56763 L 1030.0679,579.12988 z m 42.3828,-7.00073 -0.5676,0 0,-1.13525 1.3244,-0.75684 L 1072.4507,572.12915 z m -54.303,-10.5957 -0.5676,1.32446 0.5676,0.56763 1.8921,-1.32447 -0.5676,-3.59497 -1.3245,1.70288 L 1018.1477,561.53345 z m 12.4878,-8.13599 0.5676,0.56763 1.8921,-1.70288 -1.1352,-1.89209 -1.3245,0 L 1030.6355,553.39746 z m -11.1633,-1.13525 0.5676,0.56762 0.5676,-0.56762 -0.5676,-3.78418 -0.5676,0.56762 L 1019.4722,552.26221 z m 11.7309,-9.46045 1.8921,0 0.7569,-1.89209 -0.7569,-5.67627 -1.8921,4.35181 L 1031.2031,542.80176 z m -3.7842,-10.02808 0.7569,0.56763 0.5676,-0.56763 -1.3245,-3.02734 -1.1352,1.70288 L 1027.4189,532.77368 z m -9.8388,-1.89209 0.5676,0.56763 1.3245,-1.13526 -0.7569,-1.89209 -1.1352,1.32447 L 1017.5801,530.88159 z m 8.7036,-1.13525 0.5676,0.56762 0.5676,-0.56762 -0.5676,-0.75684 L 1026.2837,529.74634 z m -1.8921,0 1.3245,-0.75684 -0.7569,-0.56763 -1.1352,0.56763 L 1024.3916,529.74634 z m 25.5432,-1.89209 1.8921,0 -1.1352,-5.10864 -0.7569,0.75683 L 1049.9348,527.85425 z m -31.2195,-0.75684 0.7569,0.75684 0.5676,-0.75684 -0.5676,-1.13525 -0.7569,0.56763 L 1018.7153,527.09741 z m 11.9202,-8.70361 1.8921,0 q 0,-0.56763 0,-1.51367 0,-0.94605 0,-1.51367 0,-0.75684 -0.3784,-1.32447 -0.1892,-0.56762 -0.9461,-1.32446 l -1.1352,1.32446 0.5676,2.45972 L 1030.6355,518.3938 z m -13.0554,-10.02808 0.5676,0.75684 1.3245,-7.56836 -0.7569,-3.78418 -3.0273,6.81152 1.8921,3.21656 L 1017.5801,508.36572 z m 19.8669,-12.48779 0.7569,0.56763 0.5676,-0.56763 -0.5676,-0.56763 L 1037.447,495.87793 z m 33.1116,-10.5957 0,1.32446 1.8921,0 -0.5676,-3.21655 -1.3245,1.32446 L 1070.5586,485.28223 z m -56.7627,-10.59571 0.5676,0.56763 0.5677,-0.56763 -0.5677,-0.75683 L 1013.7959,474.68652 z m 60.5469,-3.78418 0.7568,0.56763 0.5676,-0.56763 -0.5676,-1.32446 -0.7568,0.75684 L 1074.3428,470.90234 z m -0.5677,-1.32446 0.5677,0.75684 0.7568,-0.75684 -1.3245,-2.45972 -1.3244,0.56763 L 1073.7751,469.57788 z m -27.4353,-8.13599 0.5677,0.75684 0.5676,-0.75684 -0.5676,-0.56762 L 1046.3398,461.44189 Z" />
      </g>
    </g>
  </g>
</svg>
